<?xml version="1.0" standalone="no"?>
 <!DOCTYPE svg PUBLIC "-//W3C//DTD SVG 1.1//EN" 
 "http://www.w3.org/Graphics/SVG/1.1/DTD/svg11.dtd"> 
<svg xmlns="http://www.w3.org/2000/svg" version="1.1" 
    width="4.22402cm" height="5.78866cm" viewBox="0 0 16630 22790 ">
<title>SVG Picture created as rees-amp-brd.svg date 2016/03/16 16:39:58 </title>
  <desc>Picture generated by PCBNEW </desc>
<g style="fill:#000000; fill-opacity:1;stroke:#000000; stroke-opacity:1;
stroke-linecap:round; stroke-linejoin:round; "
 transform="translate(0 0) scale(1 1)">
</g>
<g style="fill:#000000; fill-opacity:0.0; 
stroke:#000000; stroke-width:-0.000393701; stroke-opacity:1; 
stroke-linecap:round; stroke-linejoin:round;">
</g>
<g style="fill:#008484; fill-opacity:0.0; 
stroke:#008484; stroke-width:-0.000393701; stroke-opacity:1; 
stroke-linecap:round; stroke-linejoin:round;">
</g>
<g style="fill:#008484; fill-opacity:0.0; 
stroke:#008484; stroke-width:100; stroke-opacity:1; 
stroke-linecap:round; stroke-linejoin:round;">
<path d="M9998 18975
L10648 18975
" />
<path d="M8298 18975
L7648 18975
" />
<path d="M8298 18625
L8298 19325
" />
<path d="M8298 19325
L9998 19325
" />
<path d="M9998 19325
L9998 18625
" />
<path d="M9998 18625
L8298 18625
" />
<path d="M8793 12283
L9443 12283
" />
<path d="M7093 12283
L6443 12283
" />
<path d="M7093 11933
L7093 12633
" />
<path d="M7093 12633
L8793 12633
" />
<path d="M8793 12633
L8793 11933
" />
<path d="M8793 11933
L7093 11933
" />
<path d="M9223 15740
L9223 15090
" />
<path d="M9223 17440
L9223 18090
" />
<path d="M8873 17440
L9573 17440
" />
<path d="M9573 17440
L9573 15740
" />
<path d="M9573 15740
L8873 15740
" />
<path d="M8873 15740
L8873 17440
" />
<path d="M5876 5996
L5876 5346
" />
<path d="M5876 7696
L5876 8346
" />
<path d="M5526 7696
L6226 7696
" />
<path d="M6226 7696
L6226 5996
" />
<path d="M6226 5996
L5526 5996
" />
<path d="M5526 5996
L5526 7696
" />
</g>
<g style="fill:#008484; fill-opacity:0.0; 
stroke:#008484; stroke-width:120; stroke-opacity:1; 
stroke-linecap:round; stroke-linejoin:round;">
<path d="M11384 5893
L9404 5893
" />
<path d="M9404 5893
L9404 4893
" />
<path d="M9404 4893
L11404 4893
" />
<path d="M11404 4893
L11404 5893
" />
<path d="M11404 5643
L11154 5893
" />
</g>
<g style="fill:#008484; fill-opacity:0.0; 
stroke:#008484; stroke-width:100; stroke-opacity:1; 
stroke-linecap:round; stroke-linejoin:round;">
<path d="M8723 10524
L8723 8924
" />
<path d="M9723 8924
L9723 10524
" />
</g>
<g style="fill:#008484; fill-opacity:0.0; 
stroke:#008484; stroke-width:150; stroke-opacity:1; 
stroke-linecap:round; stroke-linejoin:round;">
<path d="M7223 11724
L7223 7724
" />
<path d="M7923 7324
L7923 12124
" />
<path d="M11223 11724
L11223 7724
" />
<path d="M10523 7324
L10523 12124
" />
</g>
<g style="fill:#008484; fill-opacity:0.0; 
stroke:#008484; stroke-width:100; stroke-opacity:1; 
stroke-linecap:round; stroke-linejoin:round;">
<path d="M9223.17 8224.02 A500 500 0.0 0 0 9723.17 7724.02 " />
<path d="M8723.17 7724.02 A500 500 0.0 0 0 9223.17 8224.02 " />
</g>
<g style="fill:#008484; fill-opacity:0.0; 
stroke:#008484; stroke-width:150; stroke-opacity:1; 
stroke-linecap:round; stroke-linejoin:round;">
<path d="M8723 7724
L8723 7324
" />
<path d="M9723 7724
L9723 7324
" />
</g>
<g style="fill:#008484; fill-opacity:0.0; 
stroke:#008484; stroke-width:100; stroke-opacity:1; 
stroke-linecap:round; stroke-linejoin:round;">
<path d="M9723 8924
L8723 8924
" />
<path d="M8723 10524
L9723 10524
" />
</g>
<g style="fill:#008484; fill-opacity:0.0; 
stroke:#008484; stroke-width:150; stroke-opacity:1; 
stroke-linecap:round; stroke-linejoin:round;">
<path d="M11223 11724
L7223 11724
" />
<path d="M7223 7724
L11223 7724
" />
<path d="M10523 12124
L7923 12124
" />
<path d="M7923 7324
L10523 7324
" />
</g>
<g style="fill:#008484; fill-opacity:0.0; 
stroke:#008484; stroke-width:100; stroke-opacity:1; 
stroke-linecap:round; stroke-linejoin:round;">
<path d="M6867 15620
L6067 15620
" />
<path d="M6067 15720
L6867 15720
" />
<path d="M6467 14720
L6467 15320
" />
<path d="M6467 17120
L6467 17720
" />
<path d="M6067 17120
L6067 15320
" />
<path d="M6067 15320
L6867 15320
" />
<path d="M6867 15320
L6867 17120
" />
<path d="M6867 17120
L6067 17120
" />
</g>
<g style="fill:#008484; fill-opacity:0.0; 
stroke:#008484; stroke-width:150; stroke-opacity:1; 
stroke-linecap:round; stroke-linejoin:round;">
<path d="M7648 17023
L7648 15023
" />
<path d="M7648 17023
L7148 16773
" />
<path d="M7148 16773
L7148 15273
" />
<path d="M7148 15273
L7648 15023
" />
<path d="M7648.37 17023.2 A1000 1000 0.0 0 0 8648.37 16023.2 " />
<path d="M8648.37 16023.2 A1000 1000 0.0 0 0 7648.37 15023.2 " />
</g>
<g style="fill:#008484; fill-opacity:0.0; 
stroke:#008484; stroke-width:59.0551; stroke-opacity:1; 
stroke-linecap:round; stroke-linejoin:round;">
<path d="M5059 14054
L5059 12086
" />
<path d="M5004 14051
L5004 13131
" />
<path d="M5004 13009
L5004 12089
" />
<path d="M4949 14044
L4949 13256
" />
<path d="M4949 12884
L4949 12096
" />
<path d="M4894 14035
L4894 13314
" />
<path d="M4894 12826
L4894 12105
" />
<path d="M4839 14022
L4839 13350
" />
<path d="M4839 12790
L4839 12118
" />
<path d="M4784 14006
L4784 13372
" />
<path d="M4784 12768
L4784 12134
" />
<path d="M4729 13986
L4729 13383
" />
<path d="M4729 12757
L4729 12154
" />
<path d="M4673 13962
L4673 13384
" />
<path d="M4673 12756
L4673 12178
" />
<path d="M4618 13935
L4618 13375
" />
<path d="M4618 12764
L4618 12205
" />
<path d="M4563 13902
L4563 13356
" />
<path d="M4563 12784
L4563 12238
" />
<path d="M4508 13865
L4508 13324
" />
<path d="M4508 12816
L4508 12275
" />
<path d="M4453 13821
L4453 13272
" />
<path d="M4453 12868
L4453 12319
" />
<path d="M4398 13771
L4398 13174
" />
<path d="M4398 12966
L4398 12369
" />
<path d="M4343 13712
L4343 12428
" />
<path d="M4288 13642
L4288 12498
" />
<path d="M4233 13555
L4233 12585
" />
<path d="M4177 13442
L4177 12698
" />
<path d="M4122 13256
L4122 12884
" />
<circle cx="4695.61" cy="13070.5" r="314.961" /> 
<circle cx="5089.31" cy="13070.5" r="999.016" /> 
<path d="M10827 15433
L10827 17400
" />
<path d="M10882 15436
L10882 16356
" />
<path d="M10882 16477
L10882 17397
" />
<path d="M10937 15442
L10937 16230
" />
<path d="M10937 16603
L10937 17391
" />
<path d="M10992 15451
L10992 16172
" />
<path d="M10992 16661
L10992 17381
" />
<path d="M11047 15464
L11047 16136
" />
<path d="M11047 16697
L11047 17368
" />
<path d="M11103 15481
L11103 16114
" />
<path d="M11103 16719
L11103 17352
" />
<path d="M11158 15500
L11158 16103
" />
<path d="M11158 16729
L11158 17333
" />
<path d="M11213 15524
L11213 16102
" />
<path d="M11213 16731
L11213 17309
" />
<path d="M11268 15552
L11268 16111
" />
<path d="M11268 16722
L11268 17281
" />
<path d="M11323 15584
L11323 16131
" />
<path d="M11323 16702
L11323 17249
" />
<path d="M11378 15622
L11378 16163
" />
<path d="M11378 16670
L11378 17211
" />
<path d="M11433 15665
L11433 16215
" />
<path d="M11433 16618
L11433 17168
" />
<path d="M11488 15716
L11488 16312
" />
<path d="M11488 16521
L11488 17117
" />
<path d="M11544 15774
L11544 17059
" />
<path d="M11599 15845
L11599 16988
" />
<path d="M11654 15931
L11654 16902
" />
<path d="M11709 16045
L11709 16788
" />
<path d="M11764 16231
L11764 16602
" />
<circle cx="11191.7" cy="16416.9" r="314.961" /> 
<circle cx="10798" cy="16416.9" r="999.016" /> 
<path d="M5967 18672
L6967 18672
" />
<path d="M4857 18562
L5467 18562
" />
<path d="M5967 18672
L5967 19672
" />
<path d="M5467 19783
L4857 19783
" />
<path d="M4857 19783
L4857 18562
" />
<path d="M5967 19672
L6967 19672
" />
<path d="M6967 19672
L6967 18672
" />
<path d="M10707 14046
L11707 14046
" />
<path d="M9597 13936
L10207 13936
" />
<path d="M10707 14046
L10707 15046
" />
<path d="M10207 15157
L9597 15157
" />
<path d="M9597 15157
L9597 13936
" />
<path d="M10707 15046
L11707 15046
" />
<path d="M11707 15046
L11707 14046
" />
</g>
<g style="fill:#008484; fill-opacity:0.0; 
stroke:#008484; stroke-width:100; stroke-opacity:1; 
stroke-linecap:round; stroke-linejoin:round;">
<path d="M5686 15620
L4886 15620
" />
<path d="M4886 15720
L5686 15720
" />
<path d="M5286 14720
L5286 15320
" />
<path d="M5286 17120
L5286 17720
" />
<path d="M4886 17120
L4886 15320
" />
<path d="M4886 15320
L5686 15320
" />
<path d="M5686 15320
L5686 17120
" />
<path d="M5686 17120
L4886 17120
" />
</g>
<g style="fill:#008484; fill-opacity:0.0; 
stroke:#008484; stroke-width:59.0551; stroke-opacity:1; 
stroke-linecap:round; stroke-linejoin:round;">
<path d="M6467 5166
L8435 5166
" />
<path d="M6470 5111
L7390 5111
" />
<path d="M7512 5111
L8432 5111
" />
<path d="M6477 5056
L7265 5056
" />
<path d="M7637 5056
L8425 5056
" />
<path d="M6486 5001
L7207 5001
" />
<path d="M7695 5001
L8416 5001
" />
<path d="M6499 4946
L7171 4946
" />
<path d="M7731 4946
L8403 4946
" />
<path d="M6515 4891
L7149 4891
" />
<path d="M7753 4891
L8387 4891
" />
<path d="M6535 4836
L7138 4836
" />
<path d="M7764 4836
L8367 4836
" />
<path d="M6559 4781
L7137 4781
" />
<path d="M7765 4781
L8343 4781
" />
<path d="M6586 4725
L7146 4725
" />
<path d="M7757 4725
L8316 4725
" />
<path d="M6619 4670
L7165 4670
" />
<path d="M7737 4670
L8283 4670
" />
<path d="M6656 4615
L7197 4615
" />
<path d="M7705 4615
L8246 4615
" />
<path d="M6700 4560
L7249 4560
" />
<path d="M7653 4560
L8202 4560
" />
<path d="M6750 4505
L7347 4505
" />
<path d="M7555 4505
L8152 4505
" />
<path d="M6809 4450
L8093 4450
" />
<path d="M6879 4395
L8023 4395
" />
<path d="M6966 4340
L7936 4340
" />
<path d="M7079 4285
L7823 4285
" />
<path d="M7265 4229
L7637 4229
" />
<circle cx="7451.52" cy="4802.76" r="314.961" /> 
<circle cx="7451.52" cy="5196.46" r="999.016" /> 
</g>
<g style="fill:#008484; fill-opacity:0.0; 
stroke:#008484; stroke-width:100; stroke-opacity:1; 
stroke-linecap:round; stroke-linejoin:round;">
<path d="M8116 6074
L11116 6074
" />
<path d="M11116 6074
L11116 7074
" />
<path d="M11116 7074
L8116 7074
" />
<path d="M8116 7074
L8116 6074
" />
<path d="M8073 546
L8073 246
" />
<path d="M8073 246
L4073 246
" />
<path d="M4073 246
L4073 546
" />
<path d="M8073 3846
L4073 3846
" />
<path d="M4073 3846
L4073 3446
" />
<path d="M4073 3446
L8073 3446
" />
<path d="M8073 3446
L8073 3846
" />
<path d="M8073 3546
L8073 546
" />
<path d="M4073 546
L4073 3546
" />
</g>
<g style="fill:#008484; fill-opacity:0.0; 
stroke:#008484; stroke-width:59.0551; stroke-opacity:1; 
stroke-linecap:round; stroke-linejoin:round;">
<path d="M2530 6751
L3927 6751
" />
<path d="M2530 7440
L2530 6751
" />
<path d="M2530 10038
L2530 10727
" />
<path d="M2530 10727
L3947 10727
" />
<path d="M3081 8739
L3967 8719
" />
<path d="M3081 8739
L3475 8365
" />
<path d="M3081 8719
L3455 9113
" />
<path d="M3081 10038
L2018 10038
" />
<path d="M2018 10038
L2018 7440
" />
<path d="M2018 7440
L3081 7440
" />
<path d="M3081 7440
L3081 10038
" />
</g>
<g style="fill:#008484; fill-opacity:0.0; 
stroke:#008484; stroke-width:120; stroke-opacity:1; 
stroke-linecap:round; stroke-linejoin:round;">
<path d="M11585 1101
L11585 2991
" />
<circle cx="10207.4" cy="2046.85" r="1692.91" /> 
<path d="M11664 1338
L11664 2755
" />
<path d="M11742 1495
L11742 2598
" />
<path d="M11821 1731
L11821 2401
" />
</g>
<g style="fill:#008484; fill-opacity:0.0; 
stroke:#008484; stroke-width:118.11; stroke-opacity:1; 
stroke-linecap:round; stroke-linejoin:round;">
<path d="M11073 2558
L11073 3031
" />
</g>
<g style="fill:#008484; fill-opacity:0.0; 
stroke:#008484; stroke-width:59.0551; stroke-opacity:1; 
stroke-linecap:round; stroke-linejoin:round;">
<path d="M8307 14841
L8307 12874
" />
<path d="M8252 14838
L8252 13918
" />
<path d="M8252 13797
L8252 12877
" />
<path d="M8197 14832
L8197 14044
" />
<path d="M8197 13671
L8197 12883
" />
<path d="M8142 14822
L8142 14101
" />
<path d="M8142 13613
L8142 12892
" />
<path d="M8087 14809
L8087 14138
" />
<path d="M8087 13577
L8087 12905
" />
<path d="M8032 14793
L8032 14160
" />
<path d="M8032 13555
L8032 12922
" />
<path d="M7977 14774
L7977 14170
" />
<path d="M7977 13544
L7977 12941
" />
<path d="M7921 14750
L7921 14172
" />
<path d="M7921 13543
L7921 12965
" />
<path d="M7866 14722
L7866 14163
" />
<path d="M7866 13552
L7866 12993
" />
<path d="M7811 14690
L7811 14143
" />
<path d="M7811 13572
L7811 13025
" />
<path d="M7756 14652
L7756 14111
" />
<path d="M7756 13604
L7756 13062
" />
<path d="M7701 14609
L7701 14059
" />
<path d="M7701 13656
L7701 13106
" />
<path d="M7646 14558
L7646 13962
" />
<path d="M7646 13753
L7646 13157
" />
<path d="M7591 14500
L7591 13215
" />
<path d="M7536 14429
L7536 13286
" />
<path d="M7481 14343
L7481 13372
" />
<path d="M7425 14229
L7425 13486
" />
<path d="M7370 14043
L7370 13672
" />
<circle cx="7943.64" cy="13857.9" r="314.961" /> 
<circle cx="8337.35" cy="13857.9" r="999.016" /> 
</g>
<g style="fill:#008484; fill-opacity:0.0; 
stroke:#008484; stroke-width:120; stroke-opacity:1; 
stroke-linecap:round; stroke-linejoin:round;">
<circle cx="9920.02" cy="4409.06" r="350" /> 
</g>
<g style="fill:#008484; fill-opacity:0.0; 
stroke:#008484; stroke-width:100; stroke-opacity:1; 
stroke-linecap:round; stroke-linejoin:round;">
<path d="M9920 4409
L8920 4409
" />
</g>
<g style="fill:#C2C200; fill-opacity:0.0; 
stroke:#C2C200; stroke-width:100; stroke-opacity:1; 
stroke-linecap:round; stroke-linejoin:round;">
</g>
<g style="fill:#C2C200; fill-opacity:0.0; 
stroke:#C2C200; stroke-width:59.0551; stroke-opacity:1; 
stroke-linecap:round; stroke-linejoin:round;">
<path d="M9157 19154
L9026 18966
" />
<path d="M8932 19154
L8932 18760
L9082 18760
L9120 18779
L9138 18797
L9157 18835
L9157 18891
L9138 18929
L9120 18947
L9082 18966
L8932 18966
" />
<path d="M9532 19154
L9307 19154
" />
<path d="M9420 19154
L9420 18760
L9382 18816
L9345 18854
L9307 18872
" />
</g>
<g style="fill:#C2C200; fill-opacity:0.0; 
stroke:#C2C200; stroke-width:80; stroke-opacity:1; 
stroke-linecap:round; stroke-linejoin:round;">
<path d="M3234 12531
L3067 12269
" />
<path d="M2948 12531
L2948 11981
L3139 11981
L3186 12008
L3210 12034
L3234 12086
L3234 12165
L3210 12217
L3186 12243
L3139 12269
L2948 12269
" />
<path d="M3400 11981
L3710 11981
L3543 12191
L3615 12191
L3662 12217
L3686 12243
L3710 12296
L3710 12427
L3686 12479
L3662 12505
L3615 12531
L3472 12531
L3424 12505
L3400 12479
" />
</g>
<g style="fill:#C2C200; fill-opacity:0.0; 
stroke:#C2C200; stroke-width:59.0551; stroke-opacity:1; 
stroke-linecap:round; stroke-linejoin:round;">
<path d="M9401 16679
L9213 16810
" />
<path d="M9401 16904
L9007 16904
L9007 16754
L9026 16716
L9045 16698
L9082 16679
L9138 16679
L9176 16698
L9195 16716
L9213 16754
L9213 16904
" />
<path d="M9045 16529
L9026 16510
L9007 16473
L9007 16379
L9026 16341
L9045 16323
L9082 16304
L9120 16304
L9176 16323
L9401 16548
L9401 16304
" />
</g>
<g style="fill:#C2C200; fill-opacity:0.0; 
stroke:#C2C200; stroke-width:80; stroke-opacity:1; 
stroke-linecap:round; stroke-linejoin:round;">
<path d="M6125 6929
L5863 7096
" />
<path d="M6125 7215
L5575 7215
L5575 7024
L5601 6977
L5627 6953
L5680 6929
L5758 6929
L5811 6953
L5837 6977
L5863 7024
L5863 7215
" />
<path d="M5758 6500
L6125 6500
" />
<path d="M5549 6619
L5942 6738
L5942 6429
" />
<path d="M11912 5536
L11893 5555
L11836 5574
L11798 5574
L11740 5555
L11702 5517
L11683 5479
L11664 5402
L11664 5345
L11683 5269
L11702 5231
L11740 5193
L11798 5174
L11836 5174
L11893 5193
L11912 5212
" />
<path d="M12045 5174
L12312 5174
L12140 5574
" />
</g>
<g style="fill:#C2C200; fill-opacity:0.0; 
stroke:#C2C200; stroke-width:59.0551; stroke-opacity:1; 
stroke-linecap:round; stroke-linejoin:round;">
<path d="M9007 10023
L9326 10023
L9363 10005
L9382 9986
L9401 9948
L9401 9873
L9382 9836
L9363 9817
L9326 9799
L9007 9799
" />
<path d="M9401 9405
L9401 9630
" />
<path d="M9401 9517
L9007 9517
L9063 9555
L9101 9592
L9120 9630
" />
</g>
<g style="fill:#008484; fill-opacity:0.0; 
stroke:#008484; stroke-width:59.0551; stroke-opacity:1; 
stroke-linecap:round; stroke-linejoin:round;">
<path d="M6645 16707
L6251 16707
L6251 16613
L6270 16557
L6307 16520
L6345 16501
L6420 16482
L6476 16482
L6551 16501
L6589 16520
L6626 16557
L6645 16613
L6645 16707
" />
<path d="M6645 16107
L6645 16332
" />
<path d="M6645 16220
L6251 16220
L6307 16257
L6345 16295
L6364 16332
" />
<path d="M8791 15451
L8754 15432
L8716 15395
L8660 15338
L8623 15320
L8585 15320
" />
<path d="M8604 15413
L8567 15395
L8529 15357
L8510 15282
L8510 15151
L8529 15076
L8567 15038
L8604 15020
L8679 15020
L8716 15038
L8754 15076
L8773 15151
L8773 15282
L8754 15357
L8716 15395
L8679 15413
L8604 15413
" />
<path d="M9148 15413
L8923 15413
" />
<path d="M9035 15413
L9035 15020
L8998 15076
L8960 15113
L8923 15132
" />
</g>
<g style="fill:#C2C200; fill-opacity:0.0; 
stroke:#C2C200; stroke-width:59.0551; stroke-opacity:1; 
stroke-linecap:round; stroke-linejoin:round;">
<path d="M3252 13014
L3233 13032
L3177 13051
L3139 13051
L3083 13032
L3045 12995
L3027 12957
L3008 12882
L3008 12826
L3027 12751
L3045 12714
L3083 12676
L3139 12658
L3177 12658
L3233 12676
L3252 12695
" />
<path d="M3626 13051
L3402 13051
" />
<path d="M3514 13051
L3514 12658
L3477 12714
L3439 12751
L3402 12770
" />
<path d="M12110 16754
L12091 16773
L12035 16791
L11997 16791
L11941 16773
L11904 16735
L11885 16698
L11866 16623
L11866 16566
L11885 16491
L11904 16454
L11941 16416
L11997 16398
L12035 16398
L12091 16416
L12110 16435
" />
<path d="M12260 16435
L12279 16416
L12316 16398
L12410 16398
L12447 16416
L12466 16435
L12485 16473
L12485 16510
L12466 16566
L12241 16791
L12485 16791
" />
<path d="M4011 19350
L4011 18957
L4161 18957
L4198 18975
L4217 18994
L4236 19032
L4236 19088
L4217 19125
L4198 19144
L4161 19163
L4011 19163
" />
<path d="M4611 19350
L4386 19350
" />
<path d="M4498 19350
L4498 18957
L4461 19013
L4423 19050
L4386 19069
" />
<path d="M12082 14823
L12082 14429
L12232 14429
L12269 14448
L12288 14467
L12307 14504
L12307 14560
L12288 14598
L12269 14617
L12232 14635
L12082 14635
" />
<path d="M12457 14467
L12475 14448
L12513 14429
L12607 14429
L12644 14448
L12663 14467
L12682 14504
L12682 14542
L12663 14598
L12438 14823
L12682 14823
" />
</g>
<g style="fill:#008484; fill-opacity:0.0; 
stroke:#008484; stroke-width:59.0551; stroke-opacity:1; 
stroke-linecap:round; stroke-linejoin:round;">
<path d="M5464 16707
L5070 16707
L5070 16613
L5089 16557
L5126 16520
L5164 16501
L5239 16482
L5295 16482
L5370 16501
L5408 16520
L5445 16557
L5464 16613
L5464 16707
" />
<path d="M5108 16332
L5089 16313
L5070 16276
L5070 16182
L5089 16145
L5108 16126
L5145 16107
L5183 16107
L5239 16126
L5464 16351
L5464 16107
" />
</g>
<g style="fill:#C2C200; fill-opacity:0.0; 
stroke:#C2C200; stroke-width:59.0551; stroke-opacity:1; 
stroke-linecap:round; stroke-linejoin:round;">
<path d="M5811 4549
L5792 4568
L5736 4587
L5698 4587
L5642 4568
L5604 4530
L5586 4493
L5567 4418
L5567 4362
L5586 4287
L5604 4249
L5642 4212
L5698 4193
L5736 4193
L5792 4212
L5811 4230
" />
<path d="M5942 4193
L6186 4193
L6054 4343
L6111 4343
L6148 4362
L6167 4380
L6186 4418
L6186 4512
L6167 4549
L6148 4568
L6111 4587
L5998 4587
L5961 4568
L5942 4549
" />
<path d="M9551 6715
L9532 6733
L9476 6752
L9438 6752
L9382 6733
L9345 6696
L9326 6658
L9307 6583
L9307 6527
L9326 6452
L9345 6415
L9382 6377
L9438 6358
L9476 6358
L9532 6377
L9551 6396
" />
<path d="M9888 6490
L9888 6752
" />
<path d="M9794 6340
L9701 6621
L9944 6621
" />
</g>
<g style="fill:#008484; fill-opacity:0.0; 
stroke:#008484; stroke-width:59.0551; stroke-opacity:1; 
stroke-linecap:round; stroke-linejoin:round;">
<path d="M8342 2224
L8342 1831
L8492 1831
L8529 1850
L8548 1868
L8567 1906
L8567 1962
L8548 1999
L8529 2018
L8492 2037
L8342 2037
" />
<path d="M8698 1831
L8941 1831
L8810 1981
L8866 1981
L8904 1999
L8923 2018
L8941 2056
L8941 2149
L8923 2187
L8904 2206
L8866 2224
L8754 2224
L8716 2206
L8698 2187
" />
</g>
<g style="fill:#008484; fill-opacity:0.0; 
stroke:#008484; stroke-width:120; stroke-opacity:1; 
stroke-linecap:round; stroke-linejoin:round;">
<path d="M5473 537
L5587 537
L5644 565
L5702 622
L5730 737
L5730 937
L5702 1051
L5644 1108
L5587 1137
L5473 1137
L5416 1108
L5359 1051
L5330 937
L5330 737
L5359 622
L5416 565
L5473 537
" />
<path d="M5987 537
L5987 1022
L6016 1080
L6044 1108
L6102 1137
L6216 1137
L6273 1108
L6302 1080
L6330 1022
L6330 537
" />
<path d="M6530 537
L6873 537
" />
<path d="M6702 1137
L6702 537
" />
</g>
<g style="fill:#C2C200; fill-opacity:0.0; 
stroke:#C2C200; stroke-width:120; stroke-opacity:1; 
stroke-linecap:round; stroke-linejoin:round;">
</g>
<g style="fill:#C2C200; fill-opacity:0.0; 
stroke:#C2C200; stroke-width:59.0551; stroke-opacity:1; 
stroke-linecap:round; stroke-linejoin:round;">
<path d="M4441 9902
L4310 9714
" />
<path d="M4216 9902
L4216 9508
L4366 9508
L4403 9527
L4422 9545
L4441 9583
L4441 9639
L4422 9677
L4403 9695
L4366 9714
L4216 9714
" />
<path d="M4553 9508
L4684 9902
L4816 9508
" />
<path d="M5153 9902
L4928 9902
" />
<path d="M5041 9902
L5041 9508
L5003 9564
L4966 9602
L4928 9620
" />
<path d="M12307 2187
L12288 2206
L12232 2224
L12194 2224
L12138 2206
L12100 2168
L12082 2131
L12063 2056
L12063 1999
L12082 1924
L12100 1887
L12138 1850
L12194 1831
L12232 1831
L12288 1850
L12307 1868
" />
<path d="M12663 1831
L12475 1831
L12457 2018
L12475 1999
L12513 1981
L12607 1981
L12644 1999
L12663 2018
L12682 2056
L12682 2149
L12663 2187
L12644 2206
L12607 2224
L12513 2224
L12475 2206
L12457 2187
" />
<path d="M3252 14195
L3233 14214
L3177 14232
L3139 14232
L3083 14214
L3045 14176
L3027 14139
L3008 14064
L3008 14007
L3027 13932
L3045 13895
L3083 13857
L3139 13839
L3177 13839
L3233 13857
L3252 13876
" />
<path d="M3589 13839
L3514 13839
L3477 13857
L3458 13876
L3420 13932
L3402 14007
L3402 14157
L3420 14195
L3439 14214
L3477 14232
L3552 14232
L3589 14214
L3608 14195
L3626 14157
L3626 14064
L3608 14026
L3589 14007
L3552 13989
L3477 13989
L3439 14007
L3420 14026
L3402 14064
" />
</g>
<g style="fill:#C2C200; fill-opacity:0.0; 
stroke:#C2C200; stroke-width:120; stroke-opacity:1; 
stroke-linecap:round; stroke-linejoin:round;">
<path d="M11091 4483
L10891 4197
" />
<path d="M10748 4483
L10748 3883
L10977 3883
L11034 3912
L11063 3940
L11091 3997
L11091 4083
L11063 4140
L11034 4169
L10977 4197
L10748 4197
" />
<path d="M11634 3883
L11348 3883
L11320 4169
L11348 4140
L11405 4112
L11548 4112
L11605 4140
L11634 4169
L11663 4226
L11663 4369
L11634 4426
L11605 4455
L11548 4483
L11405 4483
L11348 4455
L11320 4426
" />
</g>
<g style="fill:#000000; fill-opacity:0.0; 
stroke:#000000; stroke-width:120; stroke-opacity:1; 
stroke-linecap:round; stroke-linejoin:round;">
</g>
<g style="fill:#848484; fill-opacity:0.0; 
stroke:#848484; stroke-width:120; stroke-opacity:1; 
stroke-linecap:round; stroke-linejoin:round;">
</g>
<g style="fill:#848484; fill-opacity:0.0; 
stroke:#848484; stroke-width:19.685; stroke-opacity:1; 
stroke-linecap:round; stroke-linejoin:round;">
<circle cx="9026.32" cy="19763.4" r="1082.68" /> 
<circle cx="5089.31" cy="13070.5" r="1102.36" /> 
<circle cx="10798" cy="16416.9" r="1102.36" /> 
<path d="M4778 19861
L7160 19861
" />
<path d="M4778 18483
L7160 18483
" />
<path d="M4778 19861
L4778 18483
" />
<path d="M7160 19861
L7160 18483
" />
<path d="M9518 15235
L11900 15235
" />
<path d="M9518 13857
L11900 13857
" />
<path d="M9518 15235
L9518 13857
" />
<path d="M11900 15235
L11900 13857
" />
<circle cx="7451.52" cy="5196.46" r="1102.36" /> 
<circle cx="10798" cy="12873.6" r="1082.68" /> 
<circle cx="8337.35" cy="13857.9" r="1102.36" /> 
</g>
<g style="fill:#000000; fill-opacity:0.0; 
stroke:#000000; stroke-width:19.685; stroke-opacity:1; 
stroke-linecap:round; stroke-linejoin:round;">
</g>
<g style="fill:#C2C200; fill-opacity:0.0; 
stroke:#C2C200; stroke-width:19.685; stroke-opacity:1; 
stroke-linecap:round; stroke-linejoin:round;">
</g>
<g style="fill:#C2C200; fill-opacity:0.0; 
stroke:#C2C200; stroke-width:80; stroke-opacity:1; 
stroke-linecap:round; stroke-linejoin:round;">
<path d="M11366 18674
L11675 18674
L11509 18884
L11580 18884
L11628 18910
L11652 18936
L11675 18989
L11675 19120
L11652 19172
L11628 19198
L11580 19224
L11437 19224
L11390 19198
L11366 19172
" />
<path d="M11890 19172
L11914 19198
L11890 19224
L11866 19198
L11890 19172
L11890 19224
" />
<path d="M12152 19224
L12247 19224
L12294 19198
L12318 19172
L12366 19093
L12390 18989
L12390 18779
L12366 18727
L12342 18700
L12294 18674
L12199 18674
L12152 18700
L12128 18727
L12104 18779
L12104 18910
L12128 18962
L12152 18989
L12199 19015
L12294 19015
L12342 18989
L12366 18962
L12390 18910
" />
<path d="M12604 19224
L12604 18674
L12771 19067
L12937 18674
L12937 19224
" />
<path d="M1213 11981
L1523 11981
L1356 12191
L1427 12191
L1475 12217
L1499 12243
L1523 12296
L1523 12427
L1499 12479
L1475 12505
L1427 12531
L1284 12531
L1237 12505
L1213 12479
" />
<path d="M1737 12479
L1761 12505
L1737 12531
L1713 12505
L1737 12479
L1737 12531
" />
<path d="M1999 12531
L2094 12531
L2142 12505
L2165 12479
L2213 12400
L2237 12296
L2237 12086
L2213 12034
L2189 12008
L2142 11981
L2046 11981
L1999 12008
L1975 12034
L1951 12086
L1951 12217
L1975 12269
L1999 12296
L2046 12322
L2142 12322
L2189 12296
L2213 12269
L2237 12217
" />
<path d="M2451 12531
L2451 11981
" />
<path d="M2499 12322
L2642 12531
" />
<path d="M2642 12165
L2451 12374
" />
<path d="M8134 18324
L8134 18014
L8344 18181
L8344 18109
L8370 18062
L8396 18038
L8448 18014
L8579 18014
L8632 18038
L8658 18062
L8684 18109
L8684 18252
L8658 18300
L8632 18324
" />
<path d="M8632 17800
L8658 17776
L8684 17800
L8658 17824
L8632 17800
L8684 17800
" />
<path d="M8684 17538
L8684 17443
L8658 17395
L8632 17371
L8553 17324
L8448 17300
L8239 17300
L8186 17324
L8160 17348
L8134 17395
L8134 17490
L8160 17538
L8186 17562
L8239 17586
L8370 17586
L8422 17562
L8448 17538
L8475 17490
L8475 17395
L8448 17348
L8422 17324
L8370 17300
" />
<path d="M8684 17086
L8134 17086
" />
<path d="M8475 17038
L8684 16895
" />
<path d="M8317 16895
L8527 17086
" />
<path d="M6362 6795
L6362 6747
L6389 6699
L6415 6676
L6467 6652
L6572 6628
L6703 6628
L6808 6652
L6860 6676
L6886 6699
L6912 6747
L6912 6795
L6886 6842
L6860 6866
L6808 6890
L6703 6914
L6572 6914
L6467 6890
L6415 6866
L6389 6842
L6362 6795
" />
<path d="M12680 5174
L12718 5174
L12757 5193
L12776 5212
L12795 5250
L12814 5326
L12814 5421
L12795 5498
L12776 5536
L12757 5555
L12718 5574
L12680 5574
L12642 5555
L12623 5536
L12604 5498
L12585 5421
L12585 5326
L12604 5250
L12623 5212
L12642 5193
L12680 5174
" />
<path d="M12985 5536
L13004 5555
L12985 5574
L12966 5555
L12985 5536
L12985 5574
" />
<path d="M13252 5174
L13290 5174
L13328 5193
L13347 5212
L13366 5250
L13385 5326
L13385 5421
L13366 5498
L13347 5536
L13328 5555
L13290 5574
L13252 5574
L13214 5555
L13195 5536
L13176 5498
L13157 5421
L13157 5326
L13176 5250
L13195 5212
L13214 5193
L13252 5174
" />
<path d="M13747 5174
L13557 5174
L13537 5364
L13557 5345
L13595 5326
L13690 5326
L13728 5345
L13747 5364
L13766 5402
L13766 5498
L13747 5536
L13728 5555
L13690 5574
L13595 5574
L13557 5555
L13537 5536
" />
<path d="M14109 5307
L14109 5574
" />
<path d="M13937 5307
L13937 5517
L13957 5555
L13995 5574
L14052 5574
L14090 5555
L14109 5536
" />
</g>
<g style="fill:#C2C200; fill-opacity:0.0; 
stroke:#C2C200; stroke-width:59.0551; stroke-opacity:1; 
stroke-linecap:round; stroke-linejoin:round;">
<path d="M1752 12789
L1752 13051
" />
<path d="M1658 12639
L1564 12920
L1808 12920
" />
<path d="M1958 13014
L1977 13032
L1958 13051
L1939 13032
L1958 13014
L1958 13051
" />
<path d="M2108 12658
L2370 12658
L2202 13051
" />
<path d="M2689 12789
L2689 13051
" />
<path d="M2520 12789
L2520 12995
L2539 13032
L2577 13051
L2633 13051
L2670 13032
L2689 13014
" />
<path d="M12878 16435
L12897 16416
L12935 16398
L13028 16398
L13066 16416
L13085 16435
L13103 16473
L13103 16510
L13085 16566
L12860 16791
L13103 16791
" />
<path d="M13253 16435
L13272 16416
L13310 16398
L13403 16398
L13441 16416
L13460 16435
L13478 16473
L13478 16510
L13460 16566
L13235 16791
L13478 16791
" />
<path d="M13816 16529
L13816 16791
" />
<path d="M13647 16529
L13647 16735
L13666 16773
L13703 16791
L13760 16791
L13797 16773
L13816 16754
" />
<path d="M5108 20532
L5108 20138
L5258 20138
L5295 20157
L5314 20175
L5333 20213
L5333 20269
L5314 20307
L5295 20325
L5258 20344
L5108 20344
" />
<path d="M5501 20532
L5501 20138
" />
<path d="M5689 20325
L5820 20325
" />
<path d="M5876 20532
L5689 20532
L5689 20138
L5876 20138
" />
<path d="M6007 20138
L6270 20138
L6007 20532
L6270 20532
" />
<path d="M6495 20138
L6570 20138
L6607 20157
L6645 20194
L6664 20269
L6664 20400
L6645 20475
L6607 20513
L6570 20532
L6495 20532
L6457 20513
L6420 20475
L6401 20400
L6401 20269
L6420 20194
L6457 20157
L6495 20138
" />
<path d="M13357 14617
L13413 14635
L13432 14654
L13450 14692
L13450 14748
L13432 14785
L13413 14804
L13375 14823
L13225 14823
L13225 14429
L13357 14429
L13394 14448
L13413 14467
L13432 14504
L13432 14542
L13413 14579
L13394 14598
L13357 14617
L13225 14617
" />
<path d="M13600 14710
L13788 14710
" />
<path d="M13563 14823
L13694 14429
L13825 14823
" />
<path d="M13900 14429
L14125 14429
" />
<path d="M14013 14823
L14013 14429
" />
<path d="M14200 14429
L14425 14429
" />
<path d="M14313 14823
L14313 14429
" />
<path d="M14556 14617
L14688 14617
" />
<path d="M14744 14823
L14556 14823
L14556 14429
L14744 14429
" />
<path d="M15138 14823
L15006 14635
" />
<path d="M14913 14823
L14913 14429
L15063 14429
L15100 14448
L15119 14467
L15138 14504
L15138 14560
L15119 14598
L15100 14617
L15063 14635
L14913 14635
" />
<path d="M15381 14635
L15381 14823
" />
<path d="M15250 14429
L15381 14635
L15513 14429
" />
<path d="M4639 4587
L4414 4587
" />
<path d="M4526 4587
L4526 4193
L4489 4249
L4451 4287
L4414 4305
" />
<path d="M4883 4193
L4920 4193
L4958 4212
L4976 4230
L4995 4268
L5014 4343
L5014 4437
L4995 4512
L4976 4549
L4958 4568
L4920 4587
L4883 4587
L4845 4568
L4826 4549
L4808 4512
L4789 4437
L4789 4343
L4808 4268
L4826 4230
L4845 4212
L4883 4193
" />
<path d="M5351 4324
L5351 4587
" />
<path d="M5183 4324
L5183 4530
L5201 4568
L5239 4587
L5295 4587
L5333 4568
L5351 4549
" />
</g>
<g style="fill:#C2C200; fill-opacity:0.0; 
stroke:#C2C200; stroke-width:120; stroke-opacity:1; 
stroke-linecap:round; stroke-linejoin:round;">
<path d="M11841 6245
L11898 6245
L11955 6274
L11983 6302
L12012 6360
L12041 6474
L12041 6617
L12012 6731
L11983 6788
L11955 6817
L11898 6845
L11841 6845
L11783 6817
L11755 6788
L11726 6731
L11698 6617
L11698 6474
L11726 6360
L11755 6302
L11783 6274
L11841 6245
" />
<path d="M12298 6788
L12326 6817
L12298 6845
L12269 6817
L12298 6788
L12298 6845
" />
<path d="M12898 6845
L12555 6845
" />
<path d="M12726 6845
L12726 6245
L12669 6331
L12612 6388
L12555 6417
" />
<path d="M13412 6445
L13412 6845
" />
<path d="M13155 6445
L13155 6760
L13183 6817
L13241 6845
L13326 6845
L13383 6817
L13412 6788
" />
<path d="M13130 1775
L13158 1746
L13215 1718
L13358 1718
L13415 1746
L13444 1775
L13473 1832
L13473 1889
L13444 1975
L13101 2318
L13473 2318
" />
<path d="M13701 1775
L13730 1746
L13787 1718
L13930 1718
L13987 1746
L14015 1775
L14044 1832
L14044 1889
L14015 1975
L13673 2318
L14044 2318
" />
<path d="M14415 1718
L14473 1718
L14530 1746
L14558 1775
L14587 1832
L14615 1946
L14615 2089
L14587 2203
L14558 2261
L14530 2289
L14473 2318
L14415 2318
L14358 2289
L14330 2261
L14301 2203
L14273 2089
L14273 1946
L14301 1832
L14330 1775
L14358 1746
L14415 1718
" />
<path d="M15130 1918
L15130 2318
" />
<path d="M14873 1918
L14873 2232
L14901 2289
L14958 2318
L15044 2318
L15101 2289
L15130 2261
" />
</g>
<g style="fill:#C2C200; fill-opacity:0.0; 
stroke:#C2C200; stroke-width:59.0551; stroke-opacity:1; 
stroke-linecap:round; stroke-linejoin:round;">
<path d="M1658 13876
L1677 13857
L1714 13839
L1808 13839
L1845 13857
L1864 13876
L1883 13914
L1883 13951
L1864 14007
L1639 14232
L1883 14232
" />
<path d="M2033 13876
L2052 13857
L2089 13839
L2183 13839
L2220 13857
L2239 13876
L2258 13914
L2258 13951
L2239 14007
L2014 14232
L2258 14232
" />
<path d="M2595 13970
L2595 14232
" />
<path d="M2427 13970
L2427 14176
L2445 14214
L2483 14232
L2539 14232
L2577 14214
L2595 14195
" />
</g>
<g style="fill:#C2C200; fill-opacity:0.0; 
stroke:#C2C200; stroke-width:120; stroke-opacity:1; 
stroke-linecap:round; stroke-linejoin:round;">
<path d="M12652 4483
L12309 4483
" />
<path d="M12480 4483
L12480 3883
L12423 3969
L12366 4026
L12309 4055
" />
<path d="M13023 3883
L13080 3883
L13137 3912
L13166 3940
L13195 3997
L13223 4112
L13223 4255
L13195 4369
L13166 4426
L13137 4455
L13080 4483
L13023 4483
L12966 4455
L12937 4426
L12909 4369
L12880 4255
L12880 4112
L12909 3997
L12937 3940
L12966 3912
L13023 3883
" />
</g>
<g style="fill:#000000; fill-opacity:0.0; 
stroke:#000000; stroke-width:120; stroke-opacity:1; 
stroke-linecap:round; stroke-linejoin:round;">
</g>
<g style="fill:#C2C200; fill-opacity:0.0; 
stroke:#C2C200; stroke-width:120; stroke-opacity:1; 
stroke-linecap:round; stroke-linejoin:round;">
</g>
<g style="fill:#C2C200; fill-opacity:0.0; 
stroke:#C2C200; stroke-width:59.0551; stroke-opacity:1; 
stroke-linecap:round; stroke-linejoin:round;">
<path d="M3908 275
L3908 20944
" />
<path d="M11979 275
L3908 275
" />
<path d="M11979 20944
L11979 275
" />
<path d="M3908 20944
L11979 20944
" />
</g> 
</svg>
