G04 #@! TF.FileFunction,Copper,L2,Bot,Signal*
%FSLAX46Y46*%
G04 Gerber Fmt 4.6, Leading zero omitted, Abs format (unit mm)*
G04 Created by KiCad (PCBNEW 0.201603131216+6619~43~ubuntu14.04.1-product) date Mon 14 Mar 2016 01:51:23 PM EET*
%MOMM*%
G01*
G04 APERTURE LIST*
%ADD10C,0.100000*%
%ADD11C,2.500000*%
%ADD12C,1.998980*%
%ADD13C,1.750060*%
%ADD14R,1.300000X1.300000*%
%ADD15C,1.300000*%
%ADD16R,2.032000X2.032000*%
%ADD17O,2.032000X2.032000*%
%ADD18C,1.000000*%
%ADD19C,0.800000*%
%ADD20C,0.254000*%
G04 APERTURE END LIST*
D10*
D11*
X123000000Y-75000000D03*
D12*
X116500000Y-69810000D03*
X116500000Y-62190000D03*
D13*
X118865000Y-67405000D03*
X121405000Y-65500000D03*
X118865000Y-63595000D03*
D14*
X114500000Y-58500000D03*
D15*
X116500000Y-58500000D03*
D14*
X125000000Y-66000000D03*
D15*
X127000000Y-66000000D03*
D16*
X113960000Y-73500000D03*
D17*
X116500000Y-73500000D03*
D16*
X126500000Y-55460000D03*
D17*
X126500000Y-58000000D03*
D16*
X123000000Y-55500000D03*
D17*
X123000000Y-58040000D03*
D12*
X119380000Y-70000000D03*
X127000000Y-70000000D03*
X119380000Y-73000000D03*
X127000000Y-73000000D03*
X118690000Y-61000000D03*
X126310000Y-61000000D03*
X113500000Y-69810000D03*
X113500000Y-62190000D03*
D11*
X120000000Y-55500000D03*
D18*
X117690000Y-61000000D02*
X116500000Y-62190000D01*
X118500000Y-62000000D02*
X116690000Y-62000000D01*
X116690000Y-62000000D02*
X116500000Y-62190000D01*
X114500000Y-58500000D02*
X114500000Y-59500000D01*
X114500000Y-59500000D02*
X116500000Y-61500000D01*
X116500000Y-61500000D02*
X116500000Y-62190000D01*
X118865000Y-63595000D02*
X118865000Y-63365000D01*
X118865000Y-63365000D02*
X117690000Y-62190000D01*
X117690000Y-62190000D02*
X116500000Y-62190000D01*
X118690000Y-61000000D02*
X117690000Y-61000000D01*
X118865000Y-63595000D02*
X118865000Y-61175000D01*
X118865000Y-61175000D02*
X118690000Y-61000000D01*
D19*
X119190000Y-61000000D02*
X117690000Y-61000000D01*
D18*
X123000000Y-58040000D02*
X122540000Y-58500000D01*
X122540000Y-58500000D02*
X116500000Y-58500000D01*
D19*
X119380000Y-73000000D02*
X121405000Y-70975000D01*
X121405000Y-70975000D02*
X121405000Y-65500000D01*
X121405000Y-65500000D02*
X116810000Y-65500000D01*
X116810000Y-65500000D02*
X114499489Y-63189489D01*
X114499489Y-63189489D02*
X113500000Y-62190000D01*
X121405000Y-65500000D02*
X124500000Y-65500000D01*
X124500000Y-65500000D02*
X125000000Y-66000000D01*
X124960000Y-66040000D02*
X125000000Y-66000000D01*
D18*
X116500000Y-69810000D02*
X116500000Y-73500000D01*
X118865000Y-67405000D02*
X118865000Y-69485000D01*
X118865000Y-69485000D02*
X119380000Y-70000000D01*
X116500000Y-69810000D02*
X119190000Y-69810000D01*
X119190000Y-69810000D02*
X119380000Y-70000000D01*
X113500000Y-69810000D02*
X116500000Y-69810000D01*
X126500000Y-58000000D02*
X126500000Y-60810000D01*
X126500000Y-60810000D02*
X126310000Y-61000000D01*
D20*
G36*
X128290000Y-66049235D02*
X128268083Y-65670572D01*
X128129611Y-65336271D01*
X127899016Y-65280590D01*
X127179605Y-66000000D01*
X127899016Y-66719410D01*
X128129611Y-66663729D01*
X128290000Y-66202825D01*
X128290000Y-69078382D01*
X128152163Y-69027443D01*
X127179605Y-70000000D01*
X128152163Y-70972557D01*
X128290000Y-70921618D01*
X128290000Y-72078382D01*
X128152163Y-72027443D01*
X127179605Y-73000000D01*
X128152163Y-73972557D01*
X128290000Y-73921618D01*
X128290000Y-77290000D01*
X111710000Y-77290000D01*
X111710000Y-75373305D01*
X121114674Y-75373305D01*
X121401043Y-76066372D01*
X121930839Y-76597093D01*
X122623405Y-76884672D01*
X123373305Y-76885326D01*
X124066372Y-76598957D01*
X124597093Y-76069161D01*
X124884672Y-75376595D01*
X124885326Y-74626695D01*
X124689254Y-74152163D01*
X126027443Y-74152163D01*
X126126042Y-74418965D01*
X126735582Y-74645401D01*
X127385377Y-74621341D01*
X127873958Y-74418965D01*
X127972557Y-74152163D01*
X127000000Y-73179605D01*
X126027443Y-74152163D01*
X124689254Y-74152163D01*
X124598957Y-73933628D01*
X124069161Y-73402907D01*
X123376595Y-73115328D01*
X122626695Y-73114674D01*
X121933628Y-73401043D01*
X121402907Y-73930839D01*
X121115328Y-74623405D01*
X121114674Y-75373305D01*
X111710000Y-75373305D01*
X111710000Y-73785750D01*
X112309000Y-73785750D01*
X112309000Y-74642309D01*
X112405673Y-74875698D01*
X112584301Y-75054327D01*
X112817690Y-75151000D01*
X113674250Y-75151000D01*
X113833000Y-74992250D01*
X113833000Y-73627000D01*
X112467750Y-73627000D01*
X112309000Y-73785750D01*
X111710000Y-73785750D01*
X111710000Y-72357691D01*
X112309000Y-72357691D01*
X112309000Y-73214250D01*
X112467750Y-73373000D01*
X113833000Y-73373000D01*
X113833000Y-72007750D01*
X113674250Y-71849000D01*
X112817690Y-71849000D01*
X112584301Y-71945673D01*
X112405673Y-72124302D01*
X112309000Y-72357691D01*
X111710000Y-72357691D01*
X111710000Y-62513694D01*
X111865226Y-62513694D01*
X112113538Y-63114655D01*
X112572927Y-63574846D01*
X113173453Y-63824206D01*
X113670929Y-63824641D01*
X113767631Y-63921342D01*
X113767633Y-63921345D01*
X116078144Y-66231856D01*
X116413923Y-66456215D01*
X116810000Y-66535001D01*
X116810005Y-66535000D01*
X117599150Y-66535000D01*
X117585606Y-66548520D01*
X117355233Y-67103319D01*
X117354709Y-67704046D01*
X117584113Y-68259246D01*
X117730000Y-68405388D01*
X117730000Y-68675000D01*
X117676484Y-68675000D01*
X117427073Y-68425154D01*
X116826547Y-68175794D01*
X116176306Y-68175226D01*
X115575345Y-68423538D01*
X115323444Y-68675000D01*
X114676484Y-68675000D01*
X114427073Y-68425154D01*
X113826547Y-68175794D01*
X113176306Y-68175226D01*
X112575345Y-68423538D01*
X112115154Y-68882927D01*
X111865794Y-69483453D01*
X111865226Y-70133694D01*
X112113538Y-70734655D01*
X112572927Y-71194846D01*
X113173453Y-71444206D01*
X113823694Y-71444774D01*
X114424655Y-71196462D01*
X114676556Y-70945000D01*
X115323516Y-70945000D01*
X115365000Y-70986556D01*
X115365000Y-71974974D01*
X115335699Y-71945673D01*
X115102310Y-71849000D01*
X114245750Y-71849000D01*
X114087000Y-72007750D01*
X114087000Y-73373000D01*
X114107000Y-73373000D01*
X114107000Y-73627000D01*
X114087000Y-73627000D01*
X114087000Y-74992250D01*
X114245750Y-75151000D01*
X115102310Y-75151000D01*
X115335699Y-75054327D01*
X115514327Y-74875698D01*
X115531999Y-74833034D01*
X115868190Y-75057670D01*
X116500000Y-75183345D01*
X117131810Y-75057670D01*
X117667433Y-74699778D01*
X118025325Y-74164155D01*
X118059768Y-73991000D01*
X118452927Y-74384846D01*
X119053453Y-74634206D01*
X119703694Y-74634774D01*
X120304655Y-74386462D01*
X120764846Y-73927073D01*
X121014206Y-73326547D01*
X121014641Y-72829071D01*
X121108129Y-72735582D01*
X125354599Y-72735582D01*
X125378659Y-73385377D01*
X125581035Y-73873958D01*
X125847837Y-73972557D01*
X126820395Y-73000000D01*
X125847837Y-72027443D01*
X125581035Y-72126042D01*
X125354599Y-72735582D01*
X121108129Y-72735582D01*
X122136853Y-71706858D01*
X122136856Y-71706856D01*
X122312352Y-71444206D01*
X122361215Y-71371078D01*
X122404760Y-71152163D01*
X126027443Y-71152163D01*
X126126042Y-71418965D01*
X126332317Y-71495593D01*
X126126042Y-71581035D01*
X126027443Y-71847837D01*
X127000000Y-72820395D01*
X127972557Y-71847837D01*
X127873958Y-71581035D01*
X127667683Y-71504407D01*
X127873958Y-71418965D01*
X127972557Y-71152163D01*
X127000000Y-70179605D01*
X126027443Y-71152163D01*
X122404760Y-71152163D01*
X122440000Y-70975000D01*
X122440000Y-69735582D01*
X125354599Y-69735582D01*
X125378659Y-70385377D01*
X125581035Y-70873958D01*
X125847837Y-70972557D01*
X126820395Y-70000000D01*
X125847837Y-69027443D01*
X125581035Y-69126042D01*
X125354599Y-69735582D01*
X122440000Y-69735582D01*
X122440000Y-68847837D01*
X126027443Y-68847837D01*
X127000000Y-69820395D01*
X127972557Y-68847837D01*
X127873958Y-68581035D01*
X127264418Y-68354599D01*
X126614623Y-68378659D01*
X126126042Y-68581035D01*
X126027443Y-68847837D01*
X122440000Y-68847837D01*
X122440000Y-66600448D01*
X122505562Y-66535000D01*
X123702560Y-66535000D01*
X123702560Y-66650000D01*
X123751843Y-66897765D01*
X123892191Y-67107809D01*
X124102235Y-67248157D01*
X124350000Y-67297440D01*
X125650000Y-67297440D01*
X125897765Y-67248157D01*
X126107809Y-67107809D01*
X126180323Y-66999285D01*
X126280590Y-66899018D01*
X126336271Y-67129611D01*
X126819078Y-67297622D01*
X127329428Y-67268083D01*
X127663729Y-67129611D01*
X127719410Y-66899016D01*
X127000000Y-66179605D01*
X126985858Y-66193748D01*
X126806252Y-66014142D01*
X126820395Y-66000000D01*
X126806252Y-65985858D01*
X126985858Y-65806252D01*
X127000000Y-65820395D01*
X127719410Y-65100984D01*
X127663729Y-64870389D01*
X127180922Y-64702378D01*
X126670572Y-64731917D01*
X126336271Y-64870389D01*
X126280590Y-65100982D01*
X126180323Y-65000715D01*
X126107809Y-64892191D01*
X125897765Y-64751843D01*
X125650000Y-64702560D01*
X125133702Y-64702560D01*
X124896077Y-64543785D01*
X124500000Y-64464999D01*
X124499995Y-64465000D01*
X122505448Y-64465000D01*
X122261480Y-64220606D01*
X121706681Y-63990233D01*
X121105954Y-63989709D01*
X120550754Y-64219113D01*
X120304438Y-64465000D01*
X120130850Y-64465000D01*
X120144394Y-64451480D01*
X120374767Y-63896681D01*
X120375291Y-63295954D01*
X120145887Y-62740754D01*
X120000000Y-62594612D01*
X120000000Y-62001789D01*
X120074846Y-61927073D01*
X120324206Y-61326547D01*
X120324208Y-61323694D01*
X124675226Y-61323694D01*
X124923538Y-61924655D01*
X125382927Y-62384846D01*
X125983453Y-62634206D01*
X126633694Y-62634774D01*
X127234655Y-62386462D01*
X127694846Y-61927073D01*
X127944206Y-61326547D01*
X127944774Y-60676306D01*
X127696462Y-60075345D01*
X127635000Y-60013776D01*
X127635000Y-59210716D01*
X127699778Y-59167433D01*
X128057670Y-58631810D01*
X128183345Y-58000000D01*
X128057670Y-57368190D01*
X127833034Y-57031999D01*
X127875698Y-57014327D01*
X128054327Y-56835699D01*
X128151000Y-56602310D01*
X128151000Y-55745750D01*
X127992250Y-55587000D01*
X126627000Y-55587000D01*
X126627000Y-55607000D01*
X126373000Y-55607000D01*
X126373000Y-55587000D01*
X125007750Y-55587000D01*
X124849000Y-55745750D01*
X124849000Y-56602310D01*
X124945673Y-56835699D01*
X125124302Y-57014327D01*
X125166966Y-57031999D01*
X124942330Y-57368190D01*
X124816655Y-58000000D01*
X124942330Y-58631810D01*
X125300222Y-59167433D01*
X125365000Y-59210716D01*
X125365000Y-59633848D01*
X124925154Y-60072927D01*
X124675794Y-60673453D01*
X124675226Y-61323694D01*
X120324208Y-61323694D01*
X120324774Y-60676306D01*
X120076462Y-60075345D01*
X119636884Y-59635000D01*
X122540000Y-59635000D01*
X122613062Y-59620467D01*
X122967655Y-59691000D01*
X123032345Y-59691000D01*
X123664155Y-59565325D01*
X124199778Y-59207433D01*
X124557670Y-58671810D01*
X124683345Y-58040000D01*
X124557670Y-57408190D01*
X124333034Y-57071999D01*
X124375698Y-57054327D01*
X124554327Y-56875699D01*
X124651000Y-56642310D01*
X124651000Y-55785750D01*
X124492250Y-55627000D01*
X123127000Y-55627000D01*
X123127000Y-55647000D01*
X122873000Y-55647000D01*
X122873000Y-55627000D01*
X122853000Y-55627000D01*
X122853000Y-55373000D01*
X122873000Y-55373000D01*
X122873000Y-54007750D01*
X123127000Y-54007750D01*
X123127000Y-55373000D01*
X124492250Y-55373000D01*
X124651000Y-55214250D01*
X124651000Y-54357690D01*
X124634432Y-54317690D01*
X124849000Y-54317690D01*
X124849000Y-55174250D01*
X125007750Y-55333000D01*
X126373000Y-55333000D01*
X126373000Y-53967750D01*
X126627000Y-53967750D01*
X126627000Y-55333000D01*
X127992250Y-55333000D01*
X128151000Y-55174250D01*
X128151000Y-54317690D01*
X128054327Y-54084301D01*
X127875698Y-53905673D01*
X127642309Y-53809000D01*
X126785750Y-53809000D01*
X126627000Y-53967750D01*
X126373000Y-53967750D01*
X126214250Y-53809000D01*
X125357691Y-53809000D01*
X125124302Y-53905673D01*
X124945673Y-54084301D01*
X124849000Y-54317690D01*
X124634432Y-54317690D01*
X124554327Y-54124301D01*
X124375698Y-53945673D01*
X124142309Y-53849000D01*
X123285750Y-53849000D01*
X123127000Y-54007750D01*
X122873000Y-54007750D01*
X122714250Y-53849000D01*
X121857691Y-53849000D01*
X121624302Y-53945673D01*
X121445673Y-54124301D01*
X121400071Y-54234394D01*
X121069161Y-53902907D01*
X120376595Y-53615328D01*
X119626695Y-53614674D01*
X118933628Y-53901043D01*
X118402907Y-54430839D01*
X118115328Y-55123405D01*
X118114674Y-55873305D01*
X118401043Y-56566372D01*
X118930839Y-57097093D01*
X119576030Y-57365000D01*
X117117427Y-57365000D01*
X116756724Y-57215223D01*
X116245519Y-57214777D01*
X115773057Y-57409995D01*
X115681065Y-57501826D01*
X115607809Y-57392191D01*
X115397765Y-57251843D01*
X115150000Y-57202560D01*
X113850000Y-57202560D01*
X113602235Y-57251843D01*
X113392191Y-57392191D01*
X113251843Y-57602235D01*
X113202560Y-57850000D01*
X113202560Y-59150000D01*
X113251843Y-59397765D01*
X113384009Y-59595564D01*
X113451397Y-59934346D01*
X113500233Y-60007434D01*
X113697434Y-60302566D01*
X114038795Y-60643927D01*
X113826547Y-60555794D01*
X113176306Y-60555226D01*
X112575345Y-60803538D01*
X112115154Y-61262927D01*
X111865794Y-61863453D01*
X111865226Y-62513694D01*
X111710000Y-62513694D01*
X111710000Y-52710000D01*
X128290000Y-52710000D01*
X128290000Y-66049235D01*
X128290000Y-66049235D01*
G37*
X128290000Y-66049235D02*
X128268083Y-65670572D01*
X128129611Y-65336271D01*
X127899016Y-65280590D01*
X127179605Y-66000000D01*
X127899016Y-66719410D01*
X128129611Y-66663729D01*
X128290000Y-66202825D01*
X128290000Y-69078382D01*
X128152163Y-69027443D01*
X127179605Y-70000000D01*
X128152163Y-70972557D01*
X128290000Y-70921618D01*
X128290000Y-72078382D01*
X128152163Y-72027443D01*
X127179605Y-73000000D01*
X128152163Y-73972557D01*
X128290000Y-73921618D01*
X128290000Y-77290000D01*
X111710000Y-77290000D01*
X111710000Y-75373305D01*
X121114674Y-75373305D01*
X121401043Y-76066372D01*
X121930839Y-76597093D01*
X122623405Y-76884672D01*
X123373305Y-76885326D01*
X124066372Y-76598957D01*
X124597093Y-76069161D01*
X124884672Y-75376595D01*
X124885326Y-74626695D01*
X124689254Y-74152163D01*
X126027443Y-74152163D01*
X126126042Y-74418965D01*
X126735582Y-74645401D01*
X127385377Y-74621341D01*
X127873958Y-74418965D01*
X127972557Y-74152163D01*
X127000000Y-73179605D01*
X126027443Y-74152163D01*
X124689254Y-74152163D01*
X124598957Y-73933628D01*
X124069161Y-73402907D01*
X123376595Y-73115328D01*
X122626695Y-73114674D01*
X121933628Y-73401043D01*
X121402907Y-73930839D01*
X121115328Y-74623405D01*
X121114674Y-75373305D01*
X111710000Y-75373305D01*
X111710000Y-73785750D01*
X112309000Y-73785750D01*
X112309000Y-74642309D01*
X112405673Y-74875698D01*
X112584301Y-75054327D01*
X112817690Y-75151000D01*
X113674250Y-75151000D01*
X113833000Y-74992250D01*
X113833000Y-73627000D01*
X112467750Y-73627000D01*
X112309000Y-73785750D01*
X111710000Y-73785750D01*
X111710000Y-72357691D01*
X112309000Y-72357691D01*
X112309000Y-73214250D01*
X112467750Y-73373000D01*
X113833000Y-73373000D01*
X113833000Y-72007750D01*
X113674250Y-71849000D01*
X112817690Y-71849000D01*
X112584301Y-71945673D01*
X112405673Y-72124302D01*
X112309000Y-72357691D01*
X111710000Y-72357691D01*
X111710000Y-62513694D01*
X111865226Y-62513694D01*
X112113538Y-63114655D01*
X112572927Y-63574846D01*
X113173453Y-63824206D01*
X113670929Y-63824641D01*
X113767631Y-63921342D01*
X113767633Y-63921345D01*
X116078144Y-66231856D01*
X116413923Y-66456215D01*
X116810000Y-66535001D01*
X116810005Y-66535000D01*
X117599150Y-66535000D01*
X117585606Y-66548520D01*
X117355233Y-67103319D01*
X117354709Y-67704046D01*
X117584113Y-68259246D01*
X117730000Y-68405388D01*
X117730000Y-68675000D01*
X117676484Y-68675000D01*
X117427073Y-68425154D01*
X116826547Y-68175794D01*
X116176306Y-68175226D01*
X115575345Y-68423538D01*
X115323444Y-68675000D01*
X114676484Y-68675000D01*
X114427073Y-68425154D01*
X113826547Y-68175794D01*
X113176306Y-68175226D01*
X112575345Y-68423538D01*
X112115154Y-68882927D01*
X111865794Y-69483453D01*
X111865226Y-70133694D01*
X112113538Y-70734655D01*
X112572927Y-71194846D01*
X113173453Y-71444206D01*
X113823694Y-71444774D01*
X114424655Y-71196462D01*
X114676556Y-70945000D01*
X115323516Y-70945000D01*
X115365000Y-70986556D01*
X115365000Y-71974974D01*
X115335699Y-71945673D01*
X115102310Y-71849000D01*
X114245750Y-71849000D01*
X114087000Y-72007750D01*
X114087000Y-73373000D01*
X114107000Y-73373000D01*
X114107000Y-73627000D01*
X114087000Y-73627000D01*
X114087000Y-74992250D01*
X114245750Y-75151000D01*
X115102310Y-75151000D01*
X115335699Y-75054327D01*
X115514327Y-74875698D01*
X115531999Y-74833034D01*
X115868190Y-75057670D01*
X116500000Y-75183345D01*
X117131810Y-75057670D01*
X117667433Y-74699778D01*
X118025325Y-74164155D01*
X118059768Y-73991000D01*
X118452927Y-74384846D01*
X119053453Y-74634206D01*
X119703694Y-74634774D01*
X120304655Y-74386462D01*
X120764846Y-73927073D01*
X121014206Y-73326547D01*
X121014641Y-72829071D01*
X121108129Y-72735582D01*
X125354599Y-72735582D01*
X125378659Y-73385377D01*
X125581035Y-73873958D01*
X125847837Y-73972557D01*
X126820395Y-73000000D01*
X125847837Y-72027443D01*
X125581035Y-72126042D01*
X125354599Y-72735582D01*
X121108129Y-72735582D01*
X122136853Y-71706858D01*
X122136856Y-71706856D01*
X122312352Y-71444206D01*
X122361215Y-71371078D01*
X122404760Y-71152163D01*
X126027443Y-71152163D01*
X126126042Y-71418965D01*
X126332317Y-71495593D01*
X126126042Y-71581035D01*
X126027443Y-71847837D01*
X127000000Y-72820395D01*
X127972557Y-71847837D01*
X127873958Y-71581035D01*
X127667683Y-71504407D01*
X127873958Y-71418965D01*
X127972557Y-71152163D01*
X127000000Y-70179605D01*
X126027443Y-71152163D01*
X122404760Y-71152163D01*
X122440000Y-70975000D01*
X122440000Y-69735582D01*
X125354599Y-69735582D01*
X125378659Y-70385377D01*
X125581035Y-70873958D01*
X125847837Y-70972557D01*
X126820395Y-70000000D01*
X125847837Y-69027443D01*
X125581035Y-69126042D01*
X125354599Y-69735582D01*
X122440000Y-69735582D01*
X122440000Y-68847837D01*
X126027443Y-68847837D01*
X127000000Y-69820395D01*
X127972557Y-68847837D01*
X127873958Y-68581035D01*
X127264418Y-68354599D01*
X126614623Y-68378659D01*
X126126042Y-68581035D01*
X126027443Y-68847837D01*
X122440000Y-68847837D01*
X122440000Y-66600448D01*
X122505562Y-66535000D01*
X123702560Y-66535000D01*
X123702560Y-66650000D01*
X123751843Y-66897765D01*
X123892191Y-67107809D01*
X124102235Y-67248157D01*
X124350000Y-67297440D01*
X125650000Y-67297440D01*
X125897765Y-67248157D01*
X126107809Y-67107809D01*
X126180323Y-66999285D01*
X126280590Y-66899018D01*
X126336271Y-67129611D01*
X126819078Y-67297622D01*
X127329428Y-67268083D01*
X127663729Y-67129611D01*
X127719410Y-66899016D01*
X127000000Y-66179605D01*
X126985858Y-66193748D01*
X126806252Y-66014142D01*
X126820395Y-66000000D01*
X126806252Y-65985858D01*
X126985858Y-65806252D01*
X127000000Y-65820395D01*
X127719410Y-65100984D01*
X127663729Y-64870389D01*
X127180922Y-64702378D01*
X126670572Y-64731917D01*
X126336271Y-64870389D01*
X126280590Y-65100982D01*
X126180323Y-65000715D01*
X126107809Y-64892191D01*
X125897765Y-64751843D01*
X125650000Y-64702560D01*
X125133702Y-64702560D01*
X124896077Y-64543785D01*
X124500000Y-64464999D01*
X124499995Y-64465000D01*
X122505448Y-64465000D01*
X122261480Y-64220606D01*
X121706681Y-63990233D01*
X121105954Y-63989709D01*
X120550754Y-64219113D01*
X120304438Y-64465000D01*
X120130850Y-64465000D01*
X120144394Y-64451480D01*
X120374767Y-63896681D01*
X120375291Y-63295954D01*
X120145887Y-62740754D01*
X120000000Y-62594612D01*
X120000000Y-62001789D01*
X120074846Y-61927073D01*
X120324206Y-61326547D01*
X120324208Y-61323694D01*
X124675226Y-61323694D01*
X124923538Y-61924655D01*
X125382927Y-62384846D01*
X125983453Y-62634206D01*
X126633694Y-62634774D01*
X127234655Y-62386462D01*
X127694846Y-61927073D01*
X127944206Y-61326547D01*
X127944774Y-60676306D01*
X127696462Y-60075345D01*
X127635000Y-60013776D01*
X127635000Y-59210716D01*
X127699778Y-59167433D01*
X128057670Y-58631810D01*
X128183345Y-58000000D01*
X128057670Y-57368190D01*
X127833034Y-57031999D01*
X127875698Y-57014327D01*
X128054327Y-56835699D01*
X128151000Y-56602310D01*
X128151000Y-55745750D01*
X127992250Y-55587000D01*
X126627000Y-55587000D01*
X126627000Y-55607000D01*
X126373000Y-55607000D01*
X126373000Y-55587000D01*
X125007750Y-55587000D01*
X124849000Y-55745750D01*
X124849000Y-56602310D01*
X124945673Y-56835699D01*
X125124302Y-57014327D01*
X125166966Y-57031999D01*
X124942330Y-57368190D01*
X124816655Y-58000000D01*
X124942330Y-58631810D01*
X125300222Y-59167433D01*
X125365000Y-59210716D01*
X125365000Y-59633848D01*
X124925154Y-60072927D01*
X124675794Y-60673453D01*
X124675226Y-61323694D01*
X120324208Y-61323694D01*
X120324774Y-60676306D01*
X120076462Y-60075345D01*
X119636884Y-59635000D01*
X122540000Y-59635000D01*
X122613062Y-59620467D01*
X122967655Y-59691000D01*
X123032345Y-59691000D01*
X123664155Y-59565325D01*
X124199778Y-59207433D01*
X124557670Y-58671810D01*
X124683345Y-58040000D01*
X124557670Y-57408190D01*
X124333034Y-57071999D01*
X124375698Y-57054327D01*
X124554327Y-56875699D01*
X124651000Y-56642310D01*
X124651000Y-55785750D01*
X124492250Y-55627000D01*
X123127000Y-55627000D01*
X123127000Y-55647000D01*
X122873000Y-55647000D01*
X122873000Y-55627000D01*
X122853000Y-55627000D01*
X122853000Y-55373000D01*
X122873000Y-55373000D01*
X122873000Y-54007750D01*
X123127000Y-54007750D01*
X123127000Y-55373000D01*
X124492250Y-55373000D01*
X124651000Y-55214250D01*
X124651000Y-54357690D01*
X124634432Y-54317690D01*
X124849000Y-54317690D01*
X124849000Y-55174250D01*
X125007750Y-55333000D01*
X126373000Y-55333000D01*
X126373000Y-53967750D01*
X126627000Y-53967750D01*
X126627000Y-55333000D01*
X127992250Y-55333000D01*
X128151000Y-55174250D01*
X128151000Y-54317690D01*
X128054327Y-54084301D01*
X127875698Y-53905673D01*
X127642309Y-53809000D01*
X126785750Y-53809000D01*
X126627000Y-53967750D01*
X126373000Y-53967750D01*
X126214250Y-53809000D01*
X125357691Y-53809000D01*
X125124302Y-53905673D01*
X124945673Y-54084301D01*
X124849000Y-54317690D01*
X124634432Y-54317690D01*
X124554327Y-54124301D01*
X124375698Y-53945673D01*
X124142309Y-53849000D01*
X123285750Y-53849000D01*
X123127000Y-54007750D01*
X122873000Y-54007750D01*
X122714250Y-53849000D01*
X121857691Y-53849000D01*
X121624302Y-53945673D01*
X121445673Y-54124301D01*
X121400071Y-54234394D01*
X121069161Y-53902907D01*
X120376595Y-53615328D01*
X119626695Y-53614674D01*
X118933628Y-53901043D01*
X118402907Y-54430839D01*
X118115328Y-55123405D01*
X118114674Y-55873305D01*
X118401043Y-56566372D01*
X118930839Y-57097093D01*
X119576030Y-57365000D01*
X117117427Y-57365000D01*
X116756724Y-57215223D01*
X116245519Y-57214777D01*
X115773057Y-57409995D01*
X115681065Y-57501826D01*
X115607809Y-57392191D01*
X115397765Y-57251843D01*
X115150000Y-57202560D01*
X113850000Y-57202560D01*
X113602235Y-57251843D01*
X113392191Y-57392191D01*
X113251843Y-57602235D01*
X113202560Y-57850000D01*
X113202560Y-59150000D01*
X113251843Y-59397765D01*
X113384009Y-59595564D01*
X113451397Y-59934346D01*
X113500233Y-60007434D01*
X113697434Y-60302566D01*
X114038795Y-60643927D01*
X113826547Y-60555794D01*
X113176306Y-60555226D01*
X112575345Y-60803538D01*
X112115154Y-61262927D01*
X111865794Y-61863453D01*
X111865226Y-62513694D01*
X111710000Y-62513694D01*
X111710000Y-52710000D01*
X128290000Y-52710000D01*
X128290000Y-66049235D01*
M02*
