M48
;DRILL file {KiCad 0.201603131216+6619~43~ubuntu14.04.1-product} date Mon 14 Mar 2016 01:51:25 PM EET
;FORMAT={-:-/ absolute / metric / decimal}
FMAT,2
METRIC,TZ
T1C0.800
T2C0.800
T3C1.016
T4C2.500
%
G90
G05
M71
T1
X114.5Y-58.5
X116.5Y-58.5
X125.Y-66.
X127.Y-66.
T2
X113.5Y-62.19
X113.5Y-69.81
X116.5Y-62.19
X116.5Y-69.81
X118.69Y-61.
X118.865Y-63.595
X118.865Y-67.405
X119.38Y-70.
X119.38Y-73.
X121.405Y-65.5
X126.31Y-61.
X127.Y-70.
X127.Y-73.
T3
X113.96Y-73.5
X116.5Y-73.5
X123.Y-55.5
X123.Y-58.04
X126.5Y-55.46
X126.5Y-58.
T4
X120.Y-55.5
X123.Y-75.
T0
M30
