<?xml version="1.0" standalone="no"?>
 <!DOCTYPE svg PUBLIC "-//W3C//DTD SVG 1.1//EN" 
 "http://www.w3.org/Graphics/SVG/1.1/DTD/svg11.dtd"> 
<svg xmlns="http://www.w3.org/2000/svg" version="1.1" 
    width="4.44754cm" height="6.46684cm" viewBox="0 0 17510 25460 ">
<title>SVG Picture created as rees-preamp-brd.svg date 2016/07/24 14:07:30 </title>
  <desc>Picture generated by PCBNEW </desc>
<g style="fill:#000000; fill-opacity:1;stroke:#000000; stroke-opacity:1;
stroke-linecap:round; stroke-linejoin:round; "
 transform="translate(0 0) scale(1 1)">
</g>
<g style="fill:#000000; fill-opacity:0.0; 
stroke:#000000; stroke-width:-0.000393701; stroke-opacity:1; 
stroke-linecap:round; stroke-linejoin:round;">
</g>
<g style="fill:#008484; fill-opacity:0.0; 
stroke:#008484; stroke-width:-0.000393701; stroke-opacity:1; 
stroke-linecap:round; stroke-linejoin:round;">
</g>
<g style="fill:#008484; fill-opacity:0.0; 
stroke:#008484; stroke-width:59.0551; stroke-opacity:1; 
stroke-linecap:round; stroke-linejoin:round;">
<path d="M6980 5800
L5980 5800
" />
<path d="M8090 5910
L7480 5910
" />
<path d="M6980 5800
L6980 4800
" />
<path d="M7480 4690
L8090 4690
" />
<path d="M8090 4690
L8090 5910
" />
<path d="M6980 4800
L5980 4800
" />
<path d="M5980 4800
L5980 5800
" />
</g>
<g style="fill:#008484; fill-opacity:0.0; 
stroke:#008484; stroke-width:100; stroke-opacity:1; 
stroke-linecap:round; stroke-linejoin:round;">
<path d="M11035 15536
L10385 15536
" />
<path d="M12735 15536
L13385 15536
" />
<path d="M12735 15886
L12735 15186
" />
<path d="M12735 15186
L11035 15186
" />
<path d="M11035 15186
L11035 15886
" />
<path d="M11035 15886
L12735 15886
" />
<path d="M7811 9237
L7161 9237
" />
<path d="M9511 9237
L10161 9237
" />
<path d="M9511 9587
L9511 8887
" />
<path d="M9511 8887
L7811 8887
" />
<path d="M7811 8887
L7811 9587
" />
<path d="M7811 9587
L9511 9587
" />
<path d="M11035 16914
L10385 16914
" />
<path d="M12735 16914
L13385 16914
" />
<path d="M12735 17264
L12735 16564
" />
<path d="M12735 16564
L11035 16564
" />
<path d="M11035 16564
L11035 17264
" />
<path d="M11035 17264
L12735 17264
" />
<path d="M11029 12106
L10229 12106
" />
<path d="M10229 12206
L11029 12206
" />
<path d="M10629 11206
L10629 11806
" />
<path d="M10629 13606
L10629 14206
" />
<path d="M10229 13606
L10229 11806
" />
<path d="M10229 11806
L11029 11806
" />
<path d="M11029 11806
L11029 13606
" />
<path d="M11029 13606
L10229 13606
" />
</g>
<g style="fill:#008484; fill-opacity:0.0; 
stroke:#008484; stroke-width:150; stroke-opacity:1; 
stroke-linecap:round; stroke-linejoin:round;">
<path d="M11811 13387
L11811 11387
" />
<path d="M11811 13387
L11311 13137
" />
<path d="M11311 13137
L11311 11637
" />
<path d="M11311 11637
L11811 11387
" />
<path d="M11811 13387.2 A1000 1000 0.0 0 0 12811 12387.2 " />
<path d="M12811 12387.2 A1000 1000 0.0 0 0 11811 11387.2 " />
</g>
<g style="fill:#008484; fill-opacity:0.0; 
stroke:#008484; stroke-width:59.0551; stroke-opacity:1; 
stroke-linecap:round; stroke-linejoin:round;">
<path d="M9025 12189
L9025 10222
" />
<path d="M8970 12186
L8970 11266
" />
<path d="M8970 11145
L8970 10225
" />
<path d="M8915 12180
L8915 11392
" />
<path d="M8915 11019
L8915 10231
" />
<path d="M8860 12171
L8860 11450
" />
<path d="M8860 10962
L8860 10241
" />
<path d="M8805 12158
L8805 11486
" />
<path d="M8805 10925
L8805 10254
" />
<path d="M8750 12141
L8750 11508
" />
<path d="M8750 10903
L8750 10270
" />
<path d="M8694 12122
L8694 11519
" />
<path d="M8694 10893
L8694 10289
" />
<path d="M8639 12098
L8639 11520
" />
<path d="M8639 10891
L8639 10314
" />
<path d="M8584 12070
L8584 11511
" />
<path d="M8584 10900
L8584 10341
" />
<path d="M8529 12038
L8529 11491
" />
<path d="M8529 10920
L8529 10373
" />
<path d="M8474 12001
L8474 11459
" />
<path d="M8474 10952
L8474 10411
" />
<path d="M8419 11957
L8419 11407
" />
<path d="M8419 11004
L8419 10454
" />
<path d="M8364 11906
L8364 11310
" />
<path d="M8364 11101
L8364 10505
" />
<path d="M8309 11848
L8309 10564
" />
<path d="M8253 11777
L8253 10634
" />
<path d="M8198 11691
L8198 10720
" />
<path d="M8143 11577
L8143 10834
" />
<path d="M8088 11391
L8088 11020
" />
<circle cx="8661.42" cy="11206.1" r="314.961" /> 
<circle cx="9055.12" cy="11206.1" r="999.016" /> 
<path d="M14990 10222
L14990 12189
" />
<path d="M15045 10225
L15045 11145
" />
<path d="M15045 11266
L15045 12186
" />
<path d="M15100 10231
L15100 11019
" />
<path d="M15100 11392
L15100 12180
" />
<path d="M15155 10241
L15155 10962
" />
<path d="M15155 11450
L15155 12171
" />
<path d="M15210 10254
L15210 10925
" />
<path d="M15210 11486
L15210 12158
" />
<path d="M15265 10270
L15265 10903
" />
<path d="M15265 11508
L15265 12141
" />
<path d="M15320 10289
L15320 10893
" />
<path d="M15320 11519
L15320 12122
" />
<path d="M15375 10314
L15375 10891
" />
<path d="M15375 11520
L15375 12098
" />
<path d="M15431 10341
L15431 10900
" />
<path d="M15431 11511
L15431 12070
" />
<path d="M15486 10373
L15486 10920
" />
<path d="M15486 11491
L15486 12038
" />
<path d="M15541 10411
L15541 10952
" />
<path d="M15541 11459
L15541 12001
" />
<path d="M15596 10454
L15596 11004
" />
<path d="M15596 11407
L15596 11957
" />
<path d="M15651 10505
L15651 11101
" />
<path d="M15651 11310
L15651 11906
" />
<path d="M15706 10564
L15706 11848
" />
<path d="M15761 10634
L15761 11777
" />
<path d="M15816 10720
L15816 11691
" />
<path d="M15872 10834
L15872 11577
" />
<path d="M15927 11020
L15927 11391
" />
<circle cx="15354.3" cy="11206.1" r="314.961" /> 
<circle cx="14960.6" cy="11206.1" r="999.016" /> 
</g>
<g style="fill:#008484; fill-opacity:0.0; 
stroke:#008484; stroke-width:100; stroke-opacity:1; 
stroke-linecap:round; stroke-linejoin:round;">
<path d="M13785 12106
L12985 12106
" />
<path d="M12985 12206
L13785 12206
" />
<path d="M13385 11206
L13385 11806
" />
<path d="M13385 13606
L13385 14206
" />
<path d="M12985 13606
L12985 11806
" />
<path d="M12985 11806
L13785 11806
" />
<path d="M13785 11806
L13785 13606
" />
<path d="M13785 13606
L12985 13606
" />
<path d="M9511 8056
L10161 8056
" />
<path d="M7811 8056
L7161 8056
" />
<path d="M7811 7706
L7811 8406
" />
<path d="M7811 8406
L9511 8406
" />
<path d="M9511 8406
L9511 7706
" />
<path d="M9511 7706
L7811 7706
" />
</g>
<g style="fill:#480000; fill-opacity:0.0; 
stroke:#480000; stroke-width:100; stroke-opacity:1; 
stroke-linecap:round; stroke-linejoin:round;">
</g>
<g style="fill:#480000; fill-opacity:0.0; 
stroke:#480000; stroke-width:59.0551; stroke-opacity:1; 
stroke-linecap:round; stroke-linejoin:round;">
<path d="M9666 5591
L9272 5591
L9272 5441
L9291 5403
L9310 5384
L9347 5366
L9403 5366
L9441 5384
L9460 5403
L9478 5441
L9478 5591
" />
<path d="M9310 5216
L9291 5197
L9272 5160
L9272 5066
L9291 5028
L9310 5010
L9347 4991
L9385 4991
L9441 5010
L9666 5235
L9666 4991
" />
</g>
<g style="fill:#480000; fill-opacity:0.0; 
stroke:#480000; stroke-width:80; stroke-opacity:1; 
stroke-linecap:round; stroke-linejoin:round;">
<path d="M11727 15785
L11561 15523
" />
<path d="M11441 15785
L11441 15235
L11632 15235
L11680 15261
L11703 15288
L11727 15340
L11727 15418
L11703 15471
L11680 15497
L11632 15523
L11441 15523
" />
<path d="M12203 15785
L11918 15785
" />
<path d="M12061 15785
L12061 15235
L12013 15314
L11965 15366
L11918 15392
" />
<path d="M8578 9486
L8411 9224
" />
<path d="M8292 9486
L8292 8936
L8482 8936
L8530 8962
L8554 8988
L8578 9041
L8578 9119
L8554 9172
L8530 9198
L8482 9224
L8292 9224
" />
<path d="M8744 8936
L9054 8936
L8887 9145
L8959 9145
L9006 9172
L9030 9198
L9054 9250
L9054 9381
L9030 9434
L9006 9460
L8959 9486
L8816 9486
L8768 9460
L8744 9434
" />
<path d="M11802 17163
L11635 16901
" />
<path d="M11516 17163
L11516 16613
L11707 16613
L11754 16639
L11778 16665
L11802 16718
L11802 16796
L11778 16849
L11754 16875
L11707 16901
L11516 16901
" />
<path d="M11992 16665
L12016 16639
L12064 16613
L12183 16613
L12231 16639
L12254 16665
L12278 16718
L12278 16770
L12254 16849
L11969 17163
L12278 17163
" />
</g>
<g style="fill:#008484; fill-opacity:0.0; 
stroke:#008484; stroke-width:80; stroke-opacity:1; 
stroke-linecap:round; stroke-linejoin:round;">
</g>
<g style="fill:#008484; fill-opacity:0.0; 
stroke:#008484; stroke-width:120; stroke-opacity:1; 
stroke-linecap:round; stroke-linejoin:round;">
<path d="M10901 13148
L10301 13148
L10301 13006
L10329 12920
L10387 12863
L10444 12834
L10558 12806
L10644 12806
L10758 12834
L10815 12863
L10872 12920
L10901 13006
L10901 13148
" />
<path d="M10901 12234
L10901 12577
" />
<path d="M10901 12406
L10301 12406
L10387 12463
L10444 12520
L10472 12577
" />
<path d="M12246 10747
L12188 10718
L12131 10661
L12046 10575
L11988 10547
L11931 10547
" />
<path d="M11960 10690
L11903 10661
L11846 10604
L11817 10490
L11817 10290
L11846 10175
L11903 10118
L11960 10090
L12074 10090
L12131 10118
L12188 10175
L12217 10290
L12217 10490
L12188 10604
L12131 10661
L12074 10690
L11960 10690
" />
<path d="M12788 10690
L12446 10690
" />
<path d="M12617 10690
L12617 10090
L12560 10175
L12503 10233
L12446 10261
" />
</g>
<g style="fill:#480000; fill-opacity:0.0; 
stroke:#480000; stroke-width:120; stroke-opacity:1; 
stroke-linecap:round; stroke-linejoin:round;">
</g>
<g style="fill:#480000; fill-opacity:0.0; 
stroke:#480000; stroke-width:59.0551; stroke-opacity:1; 
stroke-linecap:round; stroke-linejoin:round;">
<path d="M7217 10657
L7199 10676
L7142 10695
L7105 10695
L7049 10676
L7011 10639
L6992 10601
L6974 10526
L6974 10470
L6992 10395
L7011 10357
L7049 10320
L7105 10301
L7142 10301
L7199 10320
L7217 10339
" />
<path d="M7592 10695
L7367 10695
" />
<path d="M7480 10695
L7480 10301
L7442 10357
L7405 10395
L7367 10414
" />
<path d="M16469 10756
L16451 10774
L16394 10793
L16357 10793
L16301 10774
L16263 10737
L16244 10699
L16226 10624
L16226 10568
L16244 10493
L16263 10456
L16301 10418
L16357 10399
L16394 10399
L16451 10418
L16469 10437
" />
<path d="M16619 10437
L16638 10418
L16676 10399
L16769 10399
L16807 10418
L16826 10437
L16844 10474
L16844 10512
L16826 10568
L16601 10793
L16844 10793
" />
</g>
<g style="fill:#008484; fill-opacity:0.0; 
stroke:#008484; stroke-width:59.0551; stroke-opacity:1; 
stroke-linecap:round; stroke-linejoin:round;">
</g>
<g style="fill:#008484; fill-opacity:0.0; 
stroke:#008484; stroke-width:120; stroke-opacity:1; 
stroke-linecap:round; stroke-linejoin:round;">
<path d="M13657 13148
L13057 13148
L13057 13006
L13085 12920
L13142 12863
L13200 12834
L13314 12806
L13400 12806
L13514 12834
L13571 12863
L13628 12920
L13657 13006
L13657 13148
" />
<path d="M13114 12577
L13085 12548
L13057 12491
L13057 12348
L13085 12291
L13114 12263
L13171 12234
L13228 12234
L13314 12263
L13657 12606
L13657 12234
" />
</g>
<g style="fill:#480000; fill-opacity:0.0; 
stroke:#480000; stroke-width:120; stroke-opacity:1; 
stroke-linecap:round; stroke-linejoin:round;">
</g>
<g style="fill:#480000; fill-opacity:0.0; 
stroke:#480000; stroke-width:59.0551; stroke-opacity:1; 
stroke-linecap:round; stroke-linejoin:round;">
<path d="M10733 2486
L10733 2092
L10883 2092
L10920 2111
L10939 2130
L10958 2167
L10958 2224
L10939 2261
L10920 2280
L10883 2299
L10733 2299
" />
<path d="M11089 2092
L11332 2092
L11201 2242
L11257 2242
L11295 2261
L11314 2280
L11332 2317
L11332 2411
L11314 2449
L11295 2467
L11257 2486
L11145 2486
L11107 2467
L11089 2449
" />
<path d="M10733 23037
L10733 22644
L10883 22644
L10920 22662
L10939 22681
L10958 22719
L10958 22775
L10939 22812
L10920 22831
L10883 22850
L10733 22850
" />
<path d="M11332 23037
L11107 23037
" />
<path d="M11220 23037
L11220 22644
L11182 22700
L11145 22737
L11107 22756
" />
</g>
<g style="fill:#008484; fill-opacity:0.0; 
stroke:#008484; stroke-width:59.0551; stroke-opacity:1; 
stroke-linecap:round; stroke-linejoin:round;">
</g>
<g style="fill:#008484; fill-opacity:0.0; 
stroke:#008484; stroke-width:80; stroke-opacity:1; 
stroke-linecap:round; stroke-linejoin:round;">
<path d="M8578 8305
L8411 8043
" />
<path d="M8292 8305
L8292 7755
L8482 7755
L8530 7781
L8554 7807
L8578 7860
L8578 7938
L8554 7991
L8530 8017
L8482 8043
L8292 8043
" />
<path d="M9006 7938
L9006 8305
" />
<path d="M8887 7729
L8768 8122
L9078 8122
" />
</g>
<g style="fill:#000000; fill-opacity:0.0; 
stroke:#000000; stroke-width:80; stroke-opacity:1; 
stroke-linecap:round; stroke-linejoin:round;">
</g>
<g style="fill:#848484; fill-opacity:0.0; 
stroke:#848484; stroke-width:80; stroke-opacity:1; 
stroke-linecap:round; stroke-linejoin:round;">
</g>
<g style="fill:#848484; fill-opacity:0.0; 
stroke:#848484; stroke-width:19.685; stroke-opacity:1; 
stroke-linecap:round; stroke-linejoin:round;">
<circle cx="6692.91" cy="3725.82" r="1082.68" /> 
<path d="M8169 4611
L5787 4611
" />
<path d="M8169 5989
L5787 5989
" />
<path d="M8169 4611
L8169 5989
" />
<path d="M5787 4611
L5787 5989
" />
<circle cx="9055.12" cy="11206.1" r="1102.36" /> 
<circle cx="14960.6" cy="11206.1" r="1102.36" /> 
</g>
<g style="fill:#848484; fill-opacity:0.0; 
stroke:#848484; stroke-width:59.0551; stroke-opacity:1; 
stroke-linecap:round; stroke-linejoin:round;">
<path d="M9055 2938
L8661 2938
" />
<path d="M9055 2544
L9055 2938
" />
<path d="M12795 2938
L13385 2938
" />
<path d="M12795 2544
L12795 2938
" />
<path d="M11023 2544
L9055 2544
" />
<path d="M11023 2544
L12795 2544
" />
<path d="M12204 1757
L12204 2544
" />
<path d="M9842 1757
L9842 2544
" />
<path d="M13385 7269
L8661 7269
" />
<path d="M13385 1757
L13385 7269
" />
<path d="M8661 1757
L8661 7269
" />
<path d="M8661 1757
L13385 1757
" />
<path d="M12992 22229
L13385 22229
" />
<path d="M12992 22623
L12992 22229
" />
<path d="M9251 22229
L8661 22229
" />
<path d="M9251 22623
L9251 22229
" />
<path d="M11023 22623
L12992 22623
" />
<path d="M11023 22623
L9251 22623
" />
<path d="M9842 23410
L9842 22623
" />
<path d="M12204 23410
L12204 22623
" />
<path d="M8661 17899
L13385 17899
" />
<path d="M8661 23410
L8661 17899
" />
<path d="M13385 23410
L13385 17899
" />
<path d="M13385 23410
L8661 23410
" />
</g>
<g style="fill:#000000; fill-opacity:0.0; 
stroke:#000000; stroke-width:59.0551; stroke-opacity:1; 
stroke-linecap:round; stroke-linejoin:round;">
</g>
<g style="fill:#480000; fill-opacity:0.0; 
stroke:#480000; stroke-width:59.0551; stroke-opacity:1; 
stroke-linecap:round; stroke-linejoin:round;">
<path d="M10023 5272
L10079 5291
L10098 5309
L10117 5347
L10117 5403
L10098 5441
L10079 5459
L10042 5478
L9892 5478
L9892 5085
L10023 5085
L10061 5103
L10079 5122
L10098 5160
L10098 5197
L10079 5235
L10061 5253
L10023 5272
L9892 5272
" />
<path d="M10267 5366
L10454 5366
" />
<path d="M10229 5478
L10361 5085
L10492 5478
" />
<path d="M10567 5085
L10792 5085
" />
<path d="M10679 5478
L10679 5085
" />
<path d="M10867 5085
L11092 5085
" />
<path d="M10979 5478
L10979 5085
" />
<path d="M11223 5272
L11354 5272
" />
<path d="M11410 5478
L11223 5478
L11223 5085
L11410 5085
" />
<path d="M11804 5478
L11673 5291
" />
<path d="M11579 5478
L11579 5085
L11729 5085
L11767 5103
L11785 5122
L11804 5160
L11804 5216
L11785 5253
L11767 5272
L11729 5291
L11579 5291
" />
<path d="M12048 5291
L12048 5478
" />
<path d="M11917 5085
L12048 5291
L12179 5085
" />
</g>
<g style="fill:#480000; fill-opacity:0.0; 
stroke:#480000; stroke-width:80; stroke-opacity:1; 
stroke-linecap:round; stroke-linejoin:round;">
<path d="M8001 15235
L8311 15235
L8144 15445
L8215 15445
L8263 15471
L8287 15497
L8311 15549
L8311 15680
L8287 15733
L8263 15759
L8215 15785
L8072 15785
L8025 15759
L8001 15733
" />
<path d="M8525 15733
L8549 15759
L8525 15785
L8501 15759
L8525 15733
L8525 15785
" />
<path d="M8787 15785
L8882 15785
L8930 15759
L8953 15733
L9001 15654
L9025 15549
L9025 15340
L9001 15288
L8977 15261
L8930 15235
L8834 15235
L8787 15261
L8763 15288
L8739 15340
L8739 15471
L8763 15523
L8787 15549
L8834 15576
L8930 15576
L8977 15549
L9001 15523
L9025 15471
" />
<path d="M9239 15785
L9239 15235
L9406 15628
L9572 15235
L9572 15785
" />
<path d="M5080 8936
L5390 8936
L5223 9145
L5295 9145
L5342 9172
L5366 9198
L5390 9250
L5390 9381
L5366 9434
L5342 9460
L5295 9486
L5152 9486
L5104 9460
L5080 9434
" />
<path d="M5604 9434
L5628 9460
L5604 9486
L5580 9460
L5604 9434
L5604 9486
" />
<path d="M5866 9486
L5961 9486
L6009 9460
L6033 9434
L6080 9355
L6104 9250
L6104 9041
L6080 8988
L6057 8962
L6009 8936
L5914 8936
L5866 8962
L5842 8988
L5818 9041
L5818 9172
L5842 9224
L5866 9250
L5914 9276
L6009 9276
L6057 9250
L6080 9224
L6104 9172
" />
<path d="M6318 9486
L6318 8936
" />
<path d="M6366 9276
L6509 9486
" />
<path d="M6509 9119
L6318 9329
" />
<path d="M8084 16613
L8394 16613
L8227 16823
L8299 16823
L8346 16849
L8370 16875
L8394 16927
L8394 17058
L8370 17111
L8346 17137
L8299 17163
L8156 17163
L8108 17137
L8084 17111
" />
<path d="M8608 17111
L8632 17137
L8608 17163
L8584 17137
L8608 17111
L8608 17163
" />
<path d="M8870 17163
L8965 17163
L9013 17137
L9037 17111
L9084 17032
L9108 16927
L9108 16718
L9084 16665
L9061 16639
L9013 16613
L8918 16613
L8870 16639
L8846 16665
L8822 16718
L8822 16849
L8846 16901
L8870 16927
L8918 16954
L9013 16954
L9061 16927
L9084 16901
L9108 16849
" />
<path d="M9322 17163
L9322 16613
" />
<path d="M9370 16954
L9513 17163
" />
<path d="M9513 16796
L9322 17006
" />
</g>
<g style="fill:#480000; fill-opacity:0.0; 
stroke:#480000; stroke-width:59.0551; stroke-opacity:1; 
stroke-linecap:round; stroke-linejoin:round;">
<path d="M6702 11121
L6702 11384
" />
<path d="M6608 10971
L6514 11252
L6758 11252
" />
<path d="M6908 11346
L6927 11365
L6908 11384
L6889 11365
L6908 11346
L6908 11384
" />
<path d="M7058 10990
L7320 10990
L7152 11384
" />
<path d="M7639 11121
L7639 11384
" />
<path d="M7470 11121
L7470 11327
L7489 11365
L7527 11384
L7583 11384
L7620 11365
L7639 11346
" />
<path d="M16254 11028
L16272 11009
L16310 10990
L16404 10990
L16441 11009
L16460 11028
L16479 11065
L16479 11103
L16460 11159
L16235 11384
L16479 11384
" />
<path d="M16629 11028
L16647 11009
L16685 10990
L16779 10990
L16816 11009
L16835 11028
L16854 11065
L16854 11103
L16835 11159
L16610 11384
L16854 11384
" />
<path d="M17191 11121
L17191 11384
" />
<path d="M17022 11121
L17022 11327
L17041 11365
L17079 11384
L17135 11384
L17172 11365
L17191 11346
" />
<path d="M10808 1182
L10808 1107
L10826 1070
L10864 1032
L10939 1013
L11070 1013
L11145 1032
L11182 1070
L11201 1107
L11201 1182
L11182 1220
L11145 1257
L11070 1276
L10939 1276
L10864 1257
L10826 1220
L10808 1182
" />
<path d="M10808 845
L11126 845
L11164 826
L11182 807
L11201 770
L11201 695
L11182 657
L11164 638
L11126 620
L10808 620
" />
<path d="M10808 488
L10808 263
" />
<path d="M11201 376
L10808 376
" />
<path d="M11201 25148
L10808 25148
L10808 24998
L10826 24960
L10845 24941
L10883 24923
L10939 24923
L10976 24941
L10995 24960
L11014 24998
L11014 25148
" />
<path d="M11201 24754
L10808 24754
" />
<path d="M10995 24566
L10995 24435
" />
<path d="M11201 24379
L11201 24566
L10808 24566
L10808 24379
" />
<path d="M10808 24248
L10808 23985
L11201 24248
L11201 23985
" />
<path d="M10808 23760
L10808 23685
L10826 23648
L10864 23610
L10939 23591
L11070 23591
L11145 23610
L11182 23648
L11201 23685
L11201 23760
L11182 23798
L11145 23835
L11070 23854
L10939 23854
L10864 23835
L10826 23798
L10808 23760
" />
</g>
<g style="fill:#000000; fill-opacity:0.0; 
stroke:#000000; stroke-width:59.0551; stroke-opacity:1; 
stroke-linecap:round; stroke-linejoin:round;">
</g>
<g style="fill:#C2C200; fill-opacity:0.0; 
stroke:#C2C200; stroke-width:59.0551; stroke-opacity:1; 
stroke-linecap:round; stroke-linejoin:round;">
<path d="M5511 12190
L5511 2544
" />
<path d="M16062 18883
L16062 22623
" />
<path d="M16062 7859
L16062 17702
" />
<path d="M15157 18883
L16062 18883
" />
<path d="M15157 17702
L16062 17702
" />
<path d="M15157 7859
L16062 7859
" />
<path d="M15157 6678
L16062 6678
" />
<path d="M6496 13371
L5511 13371
" />
<path d="M6496 12190
L5511 12190
" />
<path d="M6496.06 13371.5 A590.551 590.551 0.0 0 0 6496.06 12190.4 " />
<path d="M15157.5 17702.2 A590.551 590.551 0.0 0 0 15157.5 18883.3 " />
<path d="M15157.5 6678.57 A590.551 590.551 0.0 0 0 15157.5 7859.67 " />
<path d="M5511 13371
L5511 22623
" />
<path d="M16062 2544
L5511 2544
" />
<path d="M16062 6678
L16062 2544
" />
<path d="M5511 22623
L16062 22623
" />
</g> 
</svg>
