M48
;DRILL file {KiCad 4.1.0-alpha+201608010717+6997~46~ubuntu14.04.1-product} date Mon Aug  1 22:00:54 2016
;FORMAT={-:-/ absolute / metric / decimal}
FMAT,2
METRIC,TZ
T1C0.800
T2C0.800
T3C1.016
T4C1.200
T5C3.000
T6C1.200
%
G90
G05
M71
T1
X108.Y-122.
X110.Y-122.
X123.Y-122.
X125.Y-122.
T2
X104.19Y-114.
X104.19Y-117.
X111.81Y-114.
X111.81Y-117.
X112.38Y-133.
X112.38Y-136.5
X113.Y-122.
X113.Y-129.62
X115.365Y-123.095
X115.365Y-126.905
X117.905Y-125.
X120.Y-122.
X120.Y-129.62
X120.Y-133.
X120.Y-136.5
T3
X102.46Y-107.
X105.Y-107.
T4
X109.Y-109.5
X109.Y-141.5
X114.Y-104.5
X114.Y-146.5
X119.Y-109.5
X119.Y-141.5
T5
X103.Y-103.
T6
X109.Y-102.
X109.Y-104.5
X109.Y-146.5
X109.Y-149.
X114.Y-109.5
X114.Y-141.5
X119.Y-102.
X119.Y-104.5
X119.Y-146.5
X119.Y-149.
T0
M30
