G04 #@! TF.FileFunction,Copper,L2,Bot,Signal*
%FSLAX46Y46*%
G04 Gerber Fmt 4.6, Leading zero omitted, Abs format (unit mm)*
G04 Created by KiCad (PCBNEW 4.1.0-alpha+201608010717+6997~46~ubuntu14.04.1-product) date Mon Aug  1 22:00:52 2016*
%MOMM*%
%LPD*%
G01*
G04 APERTURE LIST*
%ADD10C,0.100000*%
%ADD11C,3.000000*%
%ADD12R,2.032000X2.032000*%
%ADD13O,2.032000X2.032000*%
%ADD14C,1.998980*%
%ADD15C,1.750060*%
%ADD16R,1.300000X1.300000*%
%ADD17C,1.300000*%
%ADD18C,1.800000*%
%ADD19C,1.000000*%
%ADD20C,0.254000*%
G04 APERTURE END LIST*
D10*
D11*
X103000000Y-103000000D03*
D12*
X105000000Y-107000000D03*
D13*
X102460000Y-107000000D03*
D14*
X120000000Y-133000000D03*
X112380000Y-133000000D03*
X111810000Y-117000000D03*
X104190000Y-117000000D03*
X120000000Y-136500000D03*
X112380000Y-136500000D03*
X113000000Y-129620000D03*
X113000000Y-122000000D03*
D15*
X115365000Y-126905000D03*
X117905000Y-125000000D03*
X115365000Y-123095000D03*
D16*
X110000000Y-122000000D03*
D17*
X108000000Y-122000000D03*
D16*
X123000000Y-122000000D03*
D17*
X125000000Y-122000000D03*
D14*
X120000000Y-129620000D03*
X120000000Y-122000000D03*
D18*
X114000000Y-104500000D03*
X109000000Y-109500000D03*
X119000000Y-109500000D03*
X114000000Y-146500000D03*
X119000000Y-141500000D03*
X109000000Y-141500000D03*
D14*
X104190000Y-114000000D03*
X111810000Y-114000000D03*
D19*
X110000000Y-122000000D02*
X110000000Y-118810000D01*
X110000000Y-118810000D02*
X111810000Y-117000000D01*
X113000000Y-122000000D02*
X110000000Y-122000000D01*
X113000000Y-122000000D02*
X114270000Y-122000000D01*
X114270000Y-122000000D02*
X115365000Y-123095000D01*
X115270000Y-123000000D02*
X115365000Y-123095000D01*
X111810000Y-114000000D02*
X108000000Y-117810000D01*
X108000000Y-117810000D02*
X108000000Y-122000000D01*
X109000000Y-109500000D02*
X109000000Y-111380000D01*
X109000000Y-111380000D02*
X111620000Y-114000000D01*
X120000000Y-136500000D02*
X123000000Y-133500000D01*
X123000000Y-133500000D02*
X123000000Y-122000000D01*
X123000000Y-122000000D02*
X120000000Y-122000000D01*
X120000000Y-136500000D02*
X120500000Y-136500000D01*
X117905000Y-125000000D02*
X117905000Y-124095000D01*
X117905000Y-124095000D02*
X120000000Y-122000000D01*
X117905000Y-125000000D02*
X118000000Y-125000000D01*
X120000000Y-133000000D02*
X120000000Y-129620000D01*
X113000000Y-129620000D02*
X120000000Y-129620000D01*
X115365000Y-126905000D02*
X115365000Y-127255000D01*
X115365000Y-127255000D02*
X113000000Y-129620000D01*
X117500000Y-135000000D02*
X117500000Y-140000000D01*
X117500000Y-140000000D02*
X119000000Y-141500000D01*
X119500000Y-133000000D02*
X117500000Y-135000000D01*
X104190000Y-117000000D02*
X103000000Y-117000000D01*
X101444001Y-108015999D02*
X102460000Y-107000000D01*
X103000000Y-117000000D02*
X101444001Y-115444001D01*
X101444001Y-115444001D02*
X101444001Y-108015999D01*
X125000000Y-120000000D02*
X125000000Y-124000000D01*
X125000000Y-122000000D02*
X125000000Y-120000000D01*
D20*
G36*
X107273300Y-101654971D02*
X107272701Y-102342014D01*
X107535067Y-102976989D01*
X107807652Y-103250050D01*
X107536774Y-103520456D01*
X107273300Y-104154971D01*
X107272701Y-104842014D01*
X107535067Y-105476989D01*
X108020456Y-105963226D01*
X108654971Y-106226700D01*
X109342014Y-106227299D01*
X109976989Y-105964933D01*
X110362435Y-105580159D01*
X113099446Y-105580159D01*
X113185852Y-105836643D01*
X113759336Y-106046458D01*
X114369460Y-106020839D01*
X114814148Y-105836643D01*
X114900554Y-105580159D01*
X114000000Y-104679605D01*
X113099446Y-105580159D01*
X110362435Y-105580159D01*
X110463226Y-105479544D01*
X110726700Y-104845029D01*
X110727210Y-104259336D01*
X112453542Y-104259336D01*
X112479161Y-104869460D01*
X112663357Y-105314148D01*
X112919841Y-105400554D01*
X113820395Y-104500000D01*
X114179605Y-104500000D01*
X115080159Y-105400554D01*
X115336643Y-105314148D01*
X115546458Y-104740664D01*
X115520839Y-104130540D01*
X115336643Y-103685852D01*
X115080159Y-103599446D01*
X114179605Y-104500000D01*
X113820395Y-104500000D01*
X112919841Y-103599446D01*
X112663357Y-103685852D01*
X112453542Y-104259336D01*
X110727210Y-104259336D01*
X110727299Y-104157986D01*
X110464933Y-103523011D01*
X110361943Y-103419841D01*
X113099446Y-103419841D01*
X114000000Y-104320395D01*
X114900554Y-103419841D01*
X114814148Y-103163357D01*
X114240664Y-102953542D01*
X113630540Y-102979161D01*
X113185852Y-103163357D01*
X113099446Y-103419841D01*
X110361943Y-103419841D01*
X110192348Y-103249950D01*
X110463226Y-102979544D01*
X110726700Y-102345029D01*
X110727299Y-101657986D01*
X110538890Y-101202000D01*
X117461390Y-101202000D01*
X117273300Y-101654971D01*
X117272701Y-102342014D01*
X117535067Y-102976989D01*
X117807652Y-103250050D01*
X117536774Y-103520456D01*
X117273300Y-104154971D01*
X117272701Y-104842014D01*
X117535067Y-105476989D01*
X118020456Y-105963226D01*
X118654971Y-106226700D01*
X119342014Y-106227299D01*
X119976989Y-105964933D01*
X120463226Y-105479544D01*
X120726700Y-104845029D01*
X120727299Y-104157986D01*
X120464933Y-103523011D01*
X120192348Y-103249950D01*
X120463226Y-102979544D01*
X120726700Y-102345029D01*
X120727299Y-101657986D01*
X120538890Y-101202000D01*
X125598000Y-101202000D01*
X125598000Y-109298000D01*
X124500000Y-109298000D01*
X124383889Y-109321096D01*
X124265501Y-109321096D01*
X123691476Y-109435277D01*
X123258180Y-109614754D01*
X122771545Y-109939913D01*
X122439913Y-110271545D01*
X122114754Y-110758180D01*
X121935277Y-111191476D01*
X121821096Y-111765501D01*
X121821096Y-112234499D01*
X121935277Y-112808523D01*
X121935277Y-112808524D01*
X122114754Y-113241820D01*
X122439913Y-113728455D01*
X122771545Y-114060087D01*
X123258180Y-114385246D01*
X123691476Y-114564723D01*
X124265501Y-114678904D01*
X124383889Y-114678904D01*
X124500000Y-114702000D01*
X125598000Y-114702000D01*
X125598000Y-120847516D01*
X125180922Y-120702378D01*
X124670572Y-120731917D01*
X124609378Y-120757264D01*
X124462522Y-120537478D01*
X124089733Y-120288389D01*
X123650000Y-120200921D01*
X122350000Y-120200921D01*
X121910267Y-120288389D01*
X121783637Y-120373000D01*
X121380526Y-120373000D01*
X121206132Y-120198301D01*
X120424841Y-119873880D01*
X119578871Y-119873142D01*
X118797014Y-120196199D01*
X118198301Y-120793868D01*
X117873880Y-121575159D01*
X117873662Y-121825413D01*
X117260125Y-122438949D01*
X117063228Y-121962423D01*
X116500540Y-121398751D01*
X115764975Y-121093318D01*
X115664156Y-121093230D01*
X115420463Y-120849537D01*
X114892626Y-120496848D01*
X114407911Y-120400432D01*
X114206132Y-120198301D01*
X113424841Y-119873880D01*
X112578871Y-119873142D01*
X111797014Y-120196199D01*
X111627000Y-120365917D01*
X111627000Y-119483926D01*
X111984283Y-119126643D01*
X112231129Y-119126858D01*
X113012986Y-118803801D01*
X113611699Y-118206132D01*
X113936120Y-117424841D01*
X113936858Y-116578871D01*
X113613801Y-115797014D01*
X113317311Y-115500006D01*
X113611699Y-115206132D01*
X113936120Y-114424841D01*
X113936858Y-113578871D01*
X113613801Y-112797014D01*
X113016132Y-112198301D01*
X112234841Y-111873880D01*
X111794421Y-111873496D01*
X110643952Y-110723027D01*
X110717405Y-110649702D01*
X111026647Y-109904964D01*
X111026701Y-109842014D01*
X112272701Y-109842014D01*
X112535067Y-110476989D01*
X113020456Y-110963226D01*
X113654971Y-111226700D01*
X114342014Y-111227299D01*
X114976989Y-110964933D01*
X115463226Y-110479544D01*
X115703281Y-109901426D01*
X116972649Y-109901426D01*
X117280591Y-110646703D01*
X117850298Y-111217405D01*
X118595036Y-111526647D01*
X119401426Y-111527351D01*
X120146703Y-111219409D01*
X120717405Y-110649702D01*
X121026647Y-109904964D01*
X121027351Y-109098574D01*
X120719409Y-108353297D01*
X120149702Y-107782595D01*
X119404964Y-107473353D01*
X118598574Y-107472649D01*
X117853297Y-107780591D01*
X117282595Y-108350298D01*
X116973353Y-109095036D01*
X116972649Y-109901426D01*
X115703281Y-109901426D01*
X115726700Y-109845029D01*
X115727299Y-109157986D01*
X115464933Y-108523011D01*
X114979544Y-108036774D01*
X114345029Y-107773300D01*
X113657986Y-107772701D01*
X113023011Y-108035067D01*
X112536774Y-108520456D01*
X112273300Y-109154971D01*
X112272701Y-109842014D01*
X111026701Y-109842014D01*
X111027351Y-109098574D01*
X110719409Y-108353297D01*
X110149702Y-107782595D01*
X109404964Y-107473353D01*
X108598574Y-107472649D01*
X107853297Y-107780591D01*
X107282595Y-108350298D01*
X106973353Y-109095036D01*
X106972649Y-109901426D01*
X107280591Y-110646703D01*
X107373000Y-110739273D01*
X107373000Y-111380000D01*
X107496848Y-112002626D01*
X107849537Y-112530463D01*
X109414074Y-114095000D01*
X106849537Y-116659537D01*
X106496848Y-117187374D01*
X106373000Y-117810000D01*
X106373000Y-121284489D01*
X106223310Y-121644982D01*
X106222693Y-122351916D01*
X106492655Y-123005274D01*
X106992096Y-123505588D01*
X107644982Y-123776690D01*
X108351916Y-123777307D01*
X108757673Y-123609651D01*
X108910267Y-123711611D01*
X109350000Y-123799079D01*
X110650000Y-123799079D01*
X111089733Y-123711611D01*
X111216363Y-123627000D01*
X111619474Y-123627000D01*
X111793868Y-123801699D01*
X112575159Y-124126120D01*
X113421129Y-124126858D01*
X113595402Y-124054850D01*
X113666772Y-124227577D01*
X114229460Y-124791249D01*
X114732518Y-125000137D01*
X114232423Y-125206772D01*
X113668751Y-125769460D01*
X113363318Y-126505025D01*
X113362924Y-126956150D01*
X112825717Y-127493357D01*
X112578871Y-127493142D01*
X111797014Y-127816199D01*
X111198301Y-128413868D01*
X110873880Y-129195159D01*
X110873142Y-130041129D01*
X111196199Y-130822986D01*
X111793868Y-131421699D01*
X111842232Y-131441781D01*
X111506042Y-131581035D01*
X111407443Y-131847837D01*
X112380000Y-132820395D01*
X113352557Y-131847837D01*
X113315205Y-131746766D01*
X113421129Y-131746858D01*
X114202986Y-131423801D01*
X114380096Y-131247000D01*
X118373000Y-131247000D01*
X118373000Y-131619474D01*
X118198301Y-131793868D01*
X118051379Y-132147695D01*
X116349537Y-133849537D01*
X115996848Y-134377374D01*
X115873000Y-135000000D01*
X115873000Y-140000000D01*
X115996848Y-140622626D01*
X116349537Y-141150463D01*
X116972761Y-141773686D01*
X116972649Y-141901426D01*
X117280591Y-142646703D01*
X117850298Y-143217405D01*
X118595036Y-143526647D01*
X119401426Y-143527351D01*
X120146703Y-143219409D01*
X120717405Y-142649702D01*
X121026647Y-141904964D01*
X121027351Y-141098574D01*
X120719409Y-140353297D01*
X120149702Y-139782595D01*
X119404964Y-139473353D01*
X119274164Y-139473239D01*
X119127000Y-139326074D01*
X119127000Y-138440028D01*
X119575159Y-138626120D01*
X120421129Y-138626858D01*
X121202986Y-138303801D01*
X121801699Y-137706132D01*
X122126120Y-136924841D01*
X122126338Y-136674588D01*
X124150463Y-134650463D01*
X124503152Y-134122626D01*
X124627001Y-133500000D01*
X124627000Y-133499995D01*
X124627000Y-123230781D01*
X124819078Y-123297622D01*
X125329428Y-123268083D01*
X125598000Y-123156837D01*
X125598000Y-137298000D01*
X124500000Y-137298000D01*
X124383889Y-137321096D01*
X124265501Y-137321096D01*
X123691476Y-137435277D01*
X123258180Y-137614754D01*
X122771545Y-137939913D01*
X122439913Y-138271545D01*
X122114754Y-138758180D01*
X121935277Y-139191476D01*
X121821096Y-139765501D01*
X121821096Y-140234499D01*
X121935277Y-140808523D01*
X121935277Y-140808524D01*
X122114754Y-141241820D01*
X122439913Y-141728455D01*
X122771545Y-142060087D01*
X123258180Y-142385246D01*
X123691476Y-142564723D01*
X124265501Y-142678904D01*
X124383889Y-142678904D01*
X124500000Y-142702000D01*
X125598000Y-142702000D01*
X125598000Y-149798000D01*
X120538610Y-149798000D01*
X120726700Y-149345029D01*
X120727299Y-148657986D01*
X120464933Y-148023011D01*
X120192348Y-147749950D01*
X120463226Y-147479544D01*
X120726700Y-146845029D01*
X120727299Y-146157986D01*
X120464933Y-145523011D01*
X119979544Y-145036774D01*
X119345029Y-144773300D01*
X118657986Y-144772701D01*
X118023011Y-145035067D01*
X117536774Y-145520456D01*
X117273300Y-146154971D01*
X117272701Y-146842014D01*
X117535067Y-147476989D01*
X117807652Y-147750050D01*
X117536774Y-148020456D01*
X117273300Y-148654971D01*
X117272701Y-149342014D01*
X117461110Y-149798000D01*
X110538610Y-149798000D01*
X110726700Y-149345029D01*
X110727299Y-148657986D01*
X110464933Y-148023011D01*
X110192348Y-147749950D01*
X110362435Y-147580159D01*
X113099446Y-147580159D01*
X113185852Y-147836643D01*
X113759336Y-148046458D01*
X114369460Y-148020839D01*
X114814148Y-147836643D01*
X114900554Y-147580159D01*
X114000000Y-146679605D01*
X113099446Y-147580159D01*
X110362435Y-147580159D01*
X110463226Y-147479544D01*
X110726700Y-146845029D01*
X110727210Y-146259336D01*
X112453542Y-146259336D01*
X112479161Y-146869460D01*
X112663357Y-147314148D01*
X112919841Y-147400554D01*
X113820395Y-146500000D01*
X114179605Y-146500000D01*
X115080159Y-147400554D01*
X115336643Y-147314148D01*
X115546458Y-146740664D01*
X115520839Y-146130540D01*
X115336643Y-145685852D01*
X115080159Y-145599446D01*
X114179605Y-146500000D01*
X113820395Y-146500000D01*
X112919841Y-145599446D01*
X112663357Y-145685852D01*
X112453542Y-146259336D01*
X110727210Y-146259336D01*
X110727299Y-146157986D01*
X110464933Y-145523011D01*
X110361943Y-145419841D01*
X113099446Y-145419841D01*
X114000000Y-146320395D01*
X114900554Y-145419841D01*
X114814148Y-145163357D01*
X114240664Y-144953542D01*
X113630540Y-144979161D01*
X113185852Y-145163357D01*
X113099446Y-145419841D01*
X110361943Y-145419841D01*
X109979544Y-145036774D01*
X109345029Y-144773300D01*
X108657986Y-144772701D01*
X108023011Y-145035067D01*
X107536774Y-145520456D01*
X107273300Y-146154971D01*
X107272701Y-146842014D01*
X107535067Y-147476989D01*
X107807652Y-147750050D01*
X107536774Y-148020456D01*
X107273300Y-148654971D01*
X107272701Y-149342014D01*
X107461110Y-149798000D01*
X101202000Y-149798000D01*
X101202000Y-141901426D01*
X106972649Y-141901426D01*
X107280591Y-142646703D01*
X107850298Y-143217405D01*
X108595036Y-143526647D01*
X109401426Y-143527351D01*
X110146703Y-143219409D01*
X110717405Y-142649702D01*
X111026647Y-141904964D01*
X111026701Y-141842014D01*
X112272701Y-141842014D01*
X112535067Y-142476989D01*
X113020456Y-142963226D01*
X113654971Y-143226700D01*
X114342014Y-143227299D01*
X114976989Y-142964933D01*
X115463226Y-142479544D01*
X115726700Y-141845029D01*
X115727299Y-141157986D01*
X115464933Y-140523011D01*
X114979544Y-140036774D01*
X114345029Y-139773300D01*
X113657986Y-139772701D01*
X113023011Y-140035067D01*
X112536774Y-140520456D01*
X112273300Y-141154971D01*
X112272701Y-141842014D01*
X111026701Y-141842014D01*
X111027351Y-141098574D01*
X110719409Y-140353297D01*
X110149702Y-139782595D01*
X109404964Y-139473353D01*
X108598574Y-139472649D01*
X107853297Y-139780591D01*
X107282595Y-140350298D01*
X106973353Y-141095036D01*
X106972649Y-141901426D01*
X101202000Y-141901426D01*
X101202000Y-137652163D01*
X111407443Y-137652163D01*
X111506042Y-137918965D01*
X112115582Y-138145401D01*
X112765377Y-138121341D01*
X113253958Y-137918965D01*
X113352557Y-137652163D01*
X112380000Y-136679605D01*
X111407443Y-137652163D01*
X101202000Y-137652163D01*
X101202000Y-136235582D01*
X110734599Y-136235582D01*
X110758659Y-136885377D01*
X110961035Y-137373958D01*
X111227837Y-137472557D01*
X112200395Y-136500000D01*
X112559605Y-136500000D01*
X113532163Y-137472557D01*
X113798965Y-137373958D01*
X114025401Y-136764418D01*
X114001341Y-136114623D01*
X113798965Y-135626042D01*
X113532163Y-135527443D01*
X112559605Y-136500000D01*
X112200395Y-136500000D01*
X111227837Y-135527443D01*
X110961035Y-135626042D01*
X110734599Y-136235582D01*
X101202000Y-136235582D01*
X101202000Y-135347837D01*
X111407443Y-135347837D01*
X112380000Y-136320395D01*
X113352557Y-135347837D01*
X113253958Y-135081035D01*
X112644418Y-134854599D01*
X111994623Y-134878659D01*
X111506042Y-135081035D01*
X111407443Y-135347837D01*
X101202000Y-135347837D01*
X101202000Y-134152163D01*
X111407443Y-134152163D01*
X111506042Y-134418965D01*
X112115582Y-134645401D01*
X112765377Y-134621341D01*
X113253958Y-134418965D01*
X113352557Y-134152163D01*
X112380000Y-133179605D01*
X111407443Y-134152163D01*
X101202000Y-134152163D01*
X101202000Y-132735582D01*
X110734599Y-132735582D01*
X110758659Y-133385377D01*
X110961035Y-133873958D01*
X111227837Y-133972557D01*
X112200395Y-133000000D01*
X112559605Y-133000000D01*
X113532163Y-133972557D01*
X113798965Y-133873958D01*
X114025401Y-133264418D01*
X114001341Y-132614623D01*
X113798965Y-132126042D01*
X113532163Y-132027443D01*
X112559605Y-133000000D01*
X112200395Y-133000000D01*
X111227837Y-132027443D01*
X110961035Y-132126042D01*
X110734599Y-132735582D01*
X101202000Y-132735582D01*
X101202000Y-128702000D01*
X102500000Y-128702000D01*
X102616111Y-128678904D01*
X102734499Y-128678904D01*
X103308524Y-128564723D01*
X103741820Y-128385246D01*
X104228455Y-128060087D01*
X104560087Y-127728455D01*
X104885246Y-127241820D01*
X105064723Y-126808524D01*
X105064723Y-126808522D01*
X105178904Y-126234499D01*
X105178904Y-125765501D01*
X105064723Y-125191476D01*
X104885246Y-124758180D01*
X104560087Y-124271545D01*
X104228455Y-123939913D01*
X103741820Y-123614754D01*
X103308524Y-123435277D01*
X102734499Y-123321096D01*
X102616111Y-123321096D01*
X102500000Y-123298000D01*
X101202000Y-123298000D01*
X101202000Y-117502926D01*
X101849537Y-118150463D01*
X102377374Y-118503152D01*
X102762268Y-118579712D01*
X102983868Y-118801699D01*
X103765159Y-119126120D01*
X104611129Y-119126858D01*
X105392986Y-118803801D01*
X105991699Y-118206132D01*
X106316120Y-117424841D01*
X106316858Y-116578871D01*
X105993801Y-115797014D01*
X105396132Y-115198301D01*
X105075597Y-115065203D01*
X104190000Y-114179605D01*
X104175858Y-114193748D01*
X103996252Y-114014142D01*
X104010395Y-114000000D01*
X104369605Y-114000000D01*
X105342163Y-114972557D01*
X105608965Y-114873958D01*
X105835401Y-114264418D01*
X105811341Y-113614623D01*
X105608965Y-113126042D01*
X105342163Y-113027443D01*
X104369605Y-114000000D01*
X104010395Y-114000000D01*
X103996252Y-113985858D01*
X104175858Y-113806252D01*
X104190000Y-113820395D01*
X105162557Y-112847837D01*
X105063958Y-112581035D01*
X104454418Y-112354599D01*
X103804623Y-112378659D01*
X103316042Y-112581035D01*
X103217444Y-112847836D01*
X103103162Y-112733554D01*
X103071001Y-112765715D01*
X103071001Y-109063449D01*
X103280091Y-109021858D01*
X103843757Y-108645229D01*
X103857690Y-108651000D01*
X104714250Y-108651000D01*
X104873000Y-108492250D01*
X104873000Y-107127000D01*
X105127000Y-107127000D01*
X105127000Y-108492250D01*
X105285750Y-108651000D01*
X106142310Y-108651000D01*
X106375699Y-108554327D01*
X106554327Y-108375698D01*
X106651000Y-108142309D01*
X106651000Y-107285750D01*
X106492250Y-107127000D01*
X105127000Y-107127000D01*
X104873000Y-107127000D01*
X104853000Y-107127000D01*
X104853000Y-106873000D01*
X104873000Y-106873000D01*
X104873000Y-105507750D01*
X105127000Y-105507750D01*
X105127000Y-106873000D01*
X106492250Y-106873000D01*
X106651000Y-106714250D01*
X106651000Y-105857691D01*
X106554327Y-105624302D01*
X106375699Y-105445673D01*
X106142310Y-105349000D01*
X105285750Y-105349000D01*
X105127000Y-105507750D01*
X104873000Y-105507750D01*
X104714250Y-105349000D01*
X104194163Y-105349000D01*
X104486132Y-105228361D01*
X105225764Y-104490019D01*
X105626543Y-103524835D01*
X105627455Y-102479750D01*
X105228361Y-101513868D01*
X104917037Y-101202000D01*
X107461390Y-101202000D01*
X107273300Y-101654971D01*
X107273300Y-101654971D01*
G37*
X107273300Y-101654971D02*
X107272701Y-102342014D01*
X107535067Y-102976989D01*
X107807652Y-103250050D01*
X107536774Y-103520456D01*
X107273300Y-104154971D01*
X107272701Y-104842014D01*
X107535067Y-105476989D01*
X108020456Y-105963226D01*
X108654971Y-106226700D01*
X109342014Y-106227299D01*
X109976989Y-105964933D01*
X110362435Y-105580159D01*
X113099446Y-105580159D01*
X113185852Y-105836643D01*
X113759336Y-106046458D01*
X114369460Y-106020839D01*
X114814148Y-105836643D01*
X114900554Y-105580159D01*
X114000000Y-104679605D01*
X113099446Y-105580159D01*
X110362435Y-105580159D01*
X110463226Y-105479544D01*
X110726700Y-104845029D01*
X110727210Y-104259336D01*
X112453542Y-104259336D01*
X112479161Y-104869460D01*
X112663357Y-105314148D01*
X112919841Y-105400554D01*
X113820395Y-104500000D01*
X114179605Y-104500000D01*
X115080159Y-105400554D01*
X115336643Y-105314148D01*
X115546458Y-104740664D01*
X115520839Y-104130540D01*
X115336643Y-103685852D01*
X115080159Y-103599446D01*
X114179605Y-104500000D01*
X113820395Y-104500000D01*
X112919841Y-103599446D01*
X112663357Y-103685852D01*
X112453542Y-104259336D01*
X110727210Y-104259336D01*
X110727299Y-104157986D01*
X110464933Y-103523011D01*
X110361943Y-103419841D01*
X113099446Y-103419841D01*
X114000000Y-104320395D01*
X114900554Y-103419841D01*
X114814148Y-103163357D01*
X114240664Y-102953542D01*
X113630540Y-102979161D01*
X113185852Y-103163357D01*
X113099446Y-103419841D01*
X110361943Y-103419841D01*
X110192348Y-103249950D01*
X110463226Y-102979544D01*
X110726700Y-102345029D01*
X110727299Y-101657986D01*
X110538890Y-101202000D01*
X117461390Y-101202000D01*
X117273300Y-101654971D01*
X117272701Y-102342014D01*
X117535067Y-102976989D01*
X117807652Y-103250050D01*
X117536774Y-103520456D01*
X117273300Y-104154971D01*
X117272701Y-104842014D01*
X117535067Y-105476989D01*
X118020456Y-105963226D01*
X118654971Y-106226700D01*
X119342014Y-106227299D01*
X119976989Y-105964933D01*
X120463226Y-105479544D01*
X120726700Y-104845029D01*
X120727299Y-104157986D01*
X120464933Y-103523011D01*
X120192348Y-103249950D01*
X120463226Y-102979544D01*
X120726700Y-102345029D01*
X120727299Y-101657986D01*
X120538890Y-101202000D01*
X125598000Y-101202000D01*
X125598000Y-109298000D01*
X124500000Y-109298000D01*
X124383889Y-109321096D01*
X124265501Y-109321096D01*
X123691476Y-109435277D01*
X123258180Y-109614754D01*
X122771545Y-109939913D01*
X122439913Y-110271545D01*
X122114754Y-110758180D01*
X121935277Y-111191476D01*
X121821096Y-111765501D01*
X121821096Y-112234499D01*
X121935277Y-112808523D01*
X121935277Y-112808524D01*
X122114754Y-113241820D01*
X122439913Y-113728455D01*
X122771545Y-114060087D01*
X123258180Y-114385246D01*
X123691476Y-114564723D01*
X124265501Y-114678904D01*
X124383889Y-114678904D01*
X124500000Y-114702000D01*
X125598000Y-114702000D01*
X125598000Y-120847516D01*
X125180922Y-120702378D01*
X124670572Y-120731917D01*
X124609378Y-120757264D01*
X124462522Y-120537478D01*
X124089733Y-120288389D01*
X123650000Y-120200921D01*
X122350000Y-120200921D01*
X121910267Y-120288389D01*
X121783637Y-120373000D01*
X121380526Y-120373000D01*
X121206132Y-120198301D01*
X120424841Y-119873880D01*
X119578871Y-119873142D01*
X118797014Y-120196199D01*
X118198301Y-120793868D01*
X117873880Y-121575159D01*
X117873662Y-121825413D01*
X117260125Y-122438949D01*
X117063228Y-121962423D01*
X116500540Y-121398751D01*
X115764975Y-121093318D01*
X115664156Y-121093230D01*
X115420463Y-120849537D01*
X114892626Y-120496848D01*
X114407911Y-120400432D01*
X114206132Y-120198301D01*
X113424841Y-119873880D01*
X112578871Y-119873142D01*
X111797014Y-120196199D01*
X111627000Y-120365917D01*
X111627000Y-119483926D01*
X111984283Y-119126643D01*
X112231129Y-119126858D01*
X113012986Y-118803801D01*
X113611699Y-118206132D01*
X113936120Y-117424841D01*
X113936858Y-116578871D01*
X113613801Y-115797014D01*
X113317311Y-115500006D01*
X113611699Y-115206132D01*
X113936120Y-114424841D01*
X113936858Y-113578871D01*
X113613801Y-112797014D01*
X113016132Y-112198301D01*
X112234841Y-111873880D01*
X111794421Y-111873496D01*
X110643952Y-110723027D01*
X110717405Y-110649702D01*
X111026647Y-109904964D01*
X111026701Y-109842014D01*
X112272701Y-109842014D01*
X112535067Y-110476989D01*
X113020456Y-110963226D01*
X113654971Y-111226700D01*
X114342014Y-111227299D01*
X114976989Y-110964933D01*
X115463226Y-110479544D01*
X115703281Y-109901426D01*
X116972649Y-109901426D01*
X117280591Y-110646703D01*
X117850298Y-111217405D01*
X118595036Y-111526647D01*
X119401426Y-111527351D01*
X120146703Y-111219409D01*
X120717405Y-110649702D01*
X121026647Y-109904964D01*
X121027351Y-109098574D01*
X120719409Y-108353297D01*
X120149702Y-107782595D01*
X119404964Y-107473353D01*
X118598574Y-107472649D01*
X117853297Y-107780591D01*
X117282595Y-108350298D01*
X116973353Y-109095036D01*
X116972649Y-109901426D01*
X115703281Y-109901426D01*
X115726700Y-109845029D01*
X115727299Y-109157986D01*
X115464933Y-108523011D01*
X114979544Y-108036774D01*
X114345029Y-107773300D01*
X113657986Y-107772701D01*
X113023011Y-108035067D01*
X112536774Y-108520456D01*
X112273300Y-109154971D01*
X112272701Y-109842014D01*
X111026701Y-109842014D01*
X111027351Y-109098574D01*
X110719409Y-108353297D01*
X110149702Y-107782595D01*
X109404964Y-107473353D01*
X108598574Y-107472649D01*
X107853297Y-107780591D01*
X107282595Y-108350298D01*
X106973353Y-109095036D01*
X106972649Y-109901426D01*
X107280591Y-110646703D01*
X107373000Y-110739273D01*
X107373000Y-111380000D01*
X107496848Y-112002626D01*
X107849537Y-112530463D01*
X109414074Y-114095000D01*
X106849537Y-116659537D01*
X106496848Y-117187374D01*
X106373000Y-117810000D01*
X106373000Y-121284489D01*
X106223310Y-121644982D01*
X106222693Y-122351916D01*
X106492655Y-123005274D01*
X106992096Y-123505588D01*
X107644982Y-123776690D01*
X108351916Y-123777307D01*
X108757673Y-123609651D01*
X108910267Y-123711611D01*
X109350000Y-123799079D01*
X110650000Y-123799079D01*
X111089733Y-123711611D01*
X111216363Y-123627000D01*
X111619474Y-123627000D01*
X111793868Y-123801699D01*
X112575159Y-124126120D01*
X113421129Y-124126858D01*
X113595402Y-124054850D01*
X113666772Y-124227577D01*
X114229460Y-124791249D01*
X114732518Y-125000137D01*
X114232423Y-125206772D01*
X113668751Y-125769460D01*
X113363318Y-126505025D01*
X113362924Y-126956150D01*
X112825717Y-127493357D01*
X112578871Y-127493142D01*
X111797014Y-127816199D01*
X111198301Y-128413868D01*
X110873880Y-129195159D01*
X110873142Y-130041129D01*
X111196199Y-130822986D01*
X111793868Y-131421699D01*
X111842232Y-131441781D01*
X111506042Y-131581035D01*
X111407443Y-131847837D01*
X112380000Y-132820395D01*
X113352557Y-131847837D01*
X113315205Y-131746766D01*
X113421129Y-131746858D01*
X114202986Y-131423801D01*
X114380096Y-131247000D01*
X118373000Y-131247000D01*
X118373000Y-131619474D01*
X118198301Y-131793868D01*
X118051379Y-132147695D01*
X116349537Y-133849537D01*
X115996848Y-134377374D01*
X115873000Y-135000000D01*
X115873000Y-140000000D01*
X115996848Y-140622626D01*
X116349537Y-141150463D01*
X116972761Y-141773686D01*
X116972649Y-141901426D01*
X117280591Y-142646703D01*
X117850298Y-143217405D01*
X118595036Y-143526647D01*
X119401426Y-143527351D01*
X120146703Y-143219409D01*
X120717405Y-142649702D01*
X121026647Y-141904964D01*
X121027351Y-141098574D01*
X120719409Y-140353297D01*
X120149702Y-139782595D01*
X119404964Y-139473353D01*
X119274164Y-139473239D01*
X119127000Y-139326074D01*
X119127000Y-138440028D01*
X119575159Y-138626120D01*
X120421129Y-138626858D01*
X121202986Y-138303801D01*
X121801699Y-137706132D01*
X122126120Y-136924841D01*
X122126338Y-136674588D01*
X124150463Y-134650463D01*
X124503152Y-134122626D01*
X124627001Y-133500000D01*
X124627000Y-133499995D01*
X124627000Y-123230781D01*
X124819078Y-123297622D01*
X125329428Y-123268083D01*
X125598000Y-123156837D01*
X125598000Y-137298000D01*
X124500000Y-137298000D01*
X124383889Y-137321096D01*
X124265501Y-137321096D01*
X123691476Y-137435277D01*
X123258180Y-137614754D01*
X122771545Y-137939913D01*
X122439913Y-138271545D01*
X122114754Y-138758180D01*
X121935277Y-139191476D01*
X121821096Y-139765501D01*
X121821096Y-140234499D01*
X121935277Y-140808523D01*
X121935277Y-140808524D01*
X122114754Y-141241820D01*
X122439913Y-141728455D01*
X122771545Y-142060087D01*
X123258180Y-142385246D01*
X123691476Y-142564723D01*
X124265501Y-142678904D01*
X124383889Y-142678904D01*
X124500000Y-142702000D01*
X125598000Y-142702000D01*
X125598000Y-149798000D01*
X120538610Y-149798000D01*
X120726700Y-149345029D01*
X120727299Y-148657986D01*
X120464933Y-148023011D01*
X120192348Y-147749950D01*
X120463226Y-147479544D01*
X120726700Y-146845029D01*
X120727299Y-146157986D01*
X120464933Y-145523011D01*
X119979544Y-145036774D01*
X119345029Y-144773300D01*
X118657986Y-144772701D01*
X118023011Y-145035067D01*
X117536774Y-145520456D01*
X117273300Y-146154971D01*
X117272701Y-146842014D01*
X117535067Y-147476989D01*
X117807652Y-147750050D01*
X117536774Y-148020456D01*
X117273300Y-148654971D01*
X117272701Y-149342014D01*
X117461110Y-149798000D01*
X110538610Y-149798000D01*
X110726700Y-149345029D01*
X110727299Y-148657986D01*
X110464933Y-148023011D01*
X110192348Y-147749950D01*
X110362435Y-147580159D01*
X113099446Y-147580159D01*
X113185852Y-147836643D01*
X113759336Y-148046458D01*
X114369460Y-148020839D01*
X114814148Y-147836643D01*
X114900554Y-147580159D01*
X114000000Y-146679605D01*
X113099446Y-147580159D01*
X110362435Y-147580159D01*
X110463226Y-147479544D01*
X110726700Y-146845029D01*
X110727210Y-146259336D01*
X112453542Y-146259336D01*
X112479161Y-146869460D01*
X112663357Y-147314148D01*
X112919841Y-147400554D01*
X113820395Y-146500000D01*
X114179605Y-146500000D01*
X115080159Y-147400554D01*
X115336643Y-147314148D01*
X115546458Y-146740664D01*
X115520839Y-146130540D01*
X115336643Y-145685852D01*
X115080159Y-145599446D01*
X114179605Y-146500000D01*
X113820395Y-146500000D01*
X112919841Y-145599446D01*
X112663357Y-145685852D01*
X112453542Y-146259336D01*
X110727210Y-146259336D01*
X110727299Y-146157986D01*
X110464933Y-145523011D01*
X110361943Y-145419841D01*
X113099446Y-145419841D01*
X114000000Y-146320395D01*
X114900554Y-145419841D01*
X114814148Y-145163357D01*
X114240664Y-144953542D01*
X113630540Y-144979161D01*
X113185852Y-145163357D01*
X113099446Y-145419841D01*
X110361943Y-145419841D01*
X109979544Y-145036774D01*
X109345029Y-144773300D01*
X108657986Y-144772701D01*
X108023011Y-145035067D01*
X107536774Y-145520456D01*
X107273300Y-146154971D01*
X107272701Y-146842014D01*
X107535067Y-147476989D01*
X107807652Y-147750050D01*
X107536774Y-148020456D01*
X107273300Y-148654971D01*
X107272701Y-149342014D01*
X107461110Y-149798000D01*
X101202000Y-149798000D01*
X101202000Y-141901426D01*
X106972649Y-141901426D01*
X107280591Y-142646703D01*
X107850298Y-143217405D01*
X108595036Y-143526647D01*
X109401426Y-143527351D01*
X110146703Y-143219409D01*
X110717405Y-142649702D01*
X111026647Y-141904964D01*
X111026701Y-141842014D01*
X112272701Y-141842014D01*
X112535067Y-142476989D01*
X113020456Y-142963226D01*
X113654971Y-143226700D01*
X114342014Y-143227299D01*
X114976989Y-142964933D01*
X115463226Y-142479544D01*
X115726700Y-141845029D01*
X115727299Y-141157986D01*
X115464933Y-140523011D01*
X114979544Y-140036774D01*
X114345029Y-139773300D01*
X113657986Y-139772701D01*
X113023011Y-140035067D01*
X112536774Y-140520456D01*
X112273300Y-141154971D01*
X112272701Y-141842014D01*
X111026701Y-141842014D01*
X111027351Y-141098574D01*
X110719409Y-140353297D01*
X110149702Y-139782595D01*
X109404964Y-139473353D01*
X108598574Y-139472649D01*
X107853297Y-139780591D01*
X107282595Y-140350298D01*
X106973353Y-141095036D01*
X106972649Y-141901426D01*
X101202000Y-141901426D01*
X101202000Y-137652163D01*
X111407443Y-137652163D01*
X111506042Y-137918965D01*
X112115582Y-138145401D01*
X112765377Y-138121341D01*
X113253958Y-137918965D01*
X113352557Y-137652163D01*
X112380000Y-136679605D01*
X111407443Y-137652163D01*
X101202000Y-137652163D01*
X101202000Y-136235582D01*
X110734599Y-136235582D01*
X110758659Y-136885377D01*
X110961035Y-137373958D01*
X111227837Y-137472557D01*
X112200395Y-136500000D01*
X112559605Y-136500000D01*
X113532163Y-137472557D01*
X113798965Y-137373958D01*
X114025401Y-136764418D01*
X114001341Y-136114623D01*
X113798965Y-135626042D01*
X113532163Y-135527443D01*
X112559605Y-136500000D01*
X112200395Y-136500000D01*
X111227837Y-135527443D01*
X110961035Y-135626042D01*
X110734599Y-136235582D01*
X101202000Y-136235582D01*
X101202000Y-135347837D01*
X111407443Y-135347837D01*
X112380000Y-136320395D01*
X113352557Y-135347837D01*
X113253958Y-135081035D01*
X112644418Y-134854599D01*
X111994623Y-134878659D01*
X111506042Y-135081035D01*
X111407443Y-135347837D01*
X101202000Y-135347837D01*
X101202000Y-134152163D01*
X111407443Y-134152163D01*
X111506042Y-134418965D01*
X112115582Y-134645401D01*
X112765377Y-134621341D01*
X113253958Y-134418965D01*
X113352557Y-134152163D01*
X112380000Y-133179605D01*
X111407443Y-134152163D01*
X101202000Y-134152163D01*
X101202000Y-132735582D01*
X110734599Y-132735582D01*
X110758659Y-133385377D01*
X110961035Y-133873958D01*
X111227837Y-133972557D01*
X112200395Y-133000000D01*
X112559605Y-133000000D01*
X113532163Y-133972557D01*
X113798965Y-133873958D01*
X114025401Y-133264418D01*
X114001341Y-132614623D01*
X113798965Y-132126042D01*
X113532163Y-132027443D01*
X112559605Y-133000000D01*
X112200395Y-133000000D01*
X111227837Y-132027443D01*
X110961035Y-132126042D01*
X110734599Y-132735582D01*
X101202000Y-132735582D01*
X101202000Y-128702000D01*
X102500000Y-128702000D01*
X102616111Y-128678904D01*
X102734499Y-128678904D01*
X103308524Y-128564723D01*
X103741820Y-128385246D01*
X104228455Y-128060087D01*
X104560087Y-127728455D01*
X104885246Y-127241820D01*
X105064723Y-126808524D01*
X105064723Y-126808522D01*
X105178904Y-126234499D01*
X105178904Y-125765501D01*
X105064723Y-125191476D01*
X104885246Y-124758180D01*
X104560087Y-124271545D01*
X104228455Y-123939913D01*
X103741820Y-123614754D01*
X103308524Y-123435277D01*
X102734499Y-123321096D01*
X102616111Y-123321096D01*
X102500000Y-123298000D01*
X101202000Y-123298000D01*
X101202000Y-117502926D01*
X101849537Y-118150463D01*
X102377374Y-118503152D01*
X102762268Y-118579712D01*
X102983868Y-118801699D01*
X103765159Y-119126120D01*
X104611129Y-119126858D01*
X105392986Y-118803801D01*
X105991699Y-118206132D01*
X106316120Y-117424841D01*
X106316858Y-116578871D01*
X105993801Y-115797014D01*
X105396132Y-115198301D01*
X105075597Y-115065203D01*
X104190000Y-114179605D01*
X104175858Y-114193748D01*
X103996252Y-114014142D01*
X104010395Y-114000000D01*
X104369605Y-114000000D01*
X105342163Y-114972557D01*
X105608965Y-114873958D01*
X105835401Y-114264418D01*
X105811341Y-113614623D01*
X105608965Y-113126042D01*
X105342163Y-113027443D01*
X104369605Y-114000000D01*
X104010395Y-114000000D01*
X103996252Y-113985858D01*
X104175858Y-113806252D01*
X104190000Y-113820395D01*
X105162557Y-112847837D01*
X105063958Y-112581035D01*
X104454418Y-112354599D01*
X103804623Y-112378659D01*
X103316042Y-112581035D01*
X103217444Y-112847836D01*
X103103162Y-112733554D01*
X103071001Y-112765715D01*
X103071001Y-109063449D01*
X103280091Y-109021858D01*
X103843757Y-108645229D01*
X103857690Y-108651000D01*
X104714250Y-108651000D01*
X104873000Y-108492250D01*
X104873000Y-107127000D01*
X105127000Y-107127000D01*
X105127000Y-108492250D01*
X105285750Y-108651000D01*
X106142310Y-108651000D01*
X106375699Y-108554327D01*
X106554327Y-108375698D01*
X106651000Y-108142309D01*
X106651000Y-107285750D01*
X106492250Y-107127000D01*
X105127000Y-107127000D01*
X104873000Y-107127000D01*
X104853000Y-107127000D01*
X104853000Y-106873000D01*
X104873000Y-106873000D01*
X104873000Y-105507750D01*
X105127000Y-105507750D01*
X105127000Y-106873000D01*
X106492250Y-106873000D01*
X106651000Y-106714250D01*
X106651000Y-105857691D01*
X106554327Y-105624302D01*
X106375699Y-105445673D01*
X106142310Y-105349000D01*
X105285750Y-105349000D01*
X105127000Y-105507750D01*
X104873000Y-105507750D01*
X104714250Y-105349000D01*
X104194163Y-105349000D01*
X104486132Y-105228361D01*
X105225764Y-104490019D01*
X105626543Y-103524835D01*
X105627455Y-102479750D01*
X105228361Y-101513868D01*
X104917037Y-101202000D01*
X107461390Y-101202000D01*
X107273300Y-101654971D01*
G36*
X125193748Y-121985858D02*
X125179605Y-122000000D01*
X125193748Y-122014142D01*
X125014142Y-122193748D01*
X125000000Y-122179605D01*
X124985858Y-122193748D01*
X124806253Y-122014143D01*
X124820395Y-122000000D01*
X124806253Y-121985858D01*
X124985858Y-121806253D01*
X125000000Y-121820395D01*
X125014142Y-121806252D01*
X125193748Y-121985858D01*
X125193748Y-121985858D01*
G37*
X125193748Y-121985858D02*
X125179605Y-122000000D01*
X125193748Y-122014142D01*
X125014142Y-122193748D01*
X125000000Y-122179605D01*
X124985858Y-122193748D01*
X124806253Y-122014143D01*
X124820395Y-122000000D01*
X124806253Y-121985858D01*
X124985858Y-121806253D01*
X125000000Y-121820395D01*
X125014142Y-121806252D01*
X125193748Y-121985858D01*
M02*
