M48
;DRILL file {KiCad 0.201603131216+6619~43~ubuntu14.04.1-product} date Mon 14 Mar 2016 01:53:17 PM EET
;FORMAT={-:-/ absolute / metric / decimal}
FMAT,2
METRIC,TZ
T1C0.800
T2C1.250
T3C2.500
%
G90
G05
M71
T1
X112.Y-58.
X113.5Y-62.19
X113.5Y-69.81
X114.Y-58.
X115.Y-38.38
X115.Y-46.
X116.44Y-56.
X116.5Y-62.19
X116.5Y-69.81
X118.865Y-63.595
X118.865Y-67.405
X119.Y-37.
X119.Y-39.
X119.5Y-73.
X119.69Y-45.69
X119.69Y-48.23
X119.69Y-50.77
X119.69Y-53.31
X120.25Y-60.
X121.405Y-65.5
X121.96Y-41.5
X122.25Y-60.
X122.73Y-36.
X123.5Y-63.13
X123.5Y-70.75
X124.06Y-56.
X124.25Y-30.
X125.23Y-38.5
X125.27Y-36.
X126.5Y-66.5
X127.04Y-41.5
X127.12Y-73.
X127.31Y-45.69
X127.31Y-48.23
X127.31Y-50.77
X127.31Y-53.31
X127.75Y-30.
X127.77Y-38.5
X128.5Y-66.5
T2
X112.Y-41.999
X112.Y-47.
X112.Y-52.001
X112.96Y-30.
X113.96Y-73.5
X116.5Y-73.5
X118.04Y-30.
X126.Y-61.75
X128.54Y-61.75
T3
X123.Y-75.
X127.5Y-57.5
T0
M30
